<mxfile host="app.diagrams.net" modified="2024-04-12T12:36:06.758Z" agent="Mozilla/5.0 (Windows NT 10.0; Win64; x64) AppleWebKit/537.36 (KHTML, like Gecko) Chrome/123.0.0.0 Safari/537.36" etag="-g7hXst0vL31t__-OEvU" version="24.2.3" type="device">
  <diagram name="第 1 页" id="77W2IhedNKFdOpC8OIvS">
    <mxGraphModel dx="1948" dy="1335" grid="1" gridSize="10" guides="1" tooltips="1" connect="1" arrows="1" fold="1" page="1" pageScale="1" pageWidth="727" pageHeight="610" math="0" shadow="0">
      <root>
        <mxCell id="0" />
        <mxCell id="1" parent="0" />
        <mxCell id="Hc0L2odZ3vd23eVe25mG-1" value="" style="rounded=1;whiteSpace=wrap;html=1;fillColor=#EDEDFC;strokeColor=#6c8ebf;glass=0;shadow=0;arcSize=6;" parent="1" vertex="1">
          <mxGeometry x="140" y="120" width="470" height="258" as="geometry" />
        </mxCell>
        <mxCell id="a9we4a085A3KK1icnXQR-8" style="rounded=0;orthogonalLoop=1;jettySize=auto;html=1;entryX=0;entryY=0.5;entryDx=0;entryDy=0;exitX=1;exitY=0.5;exitDx=0;exitDy=0;" parent="1" source="a9we4a085A3KK1icnXQR-3" target="a9we4a085A3KK1icnXQR-5" edge="1">
          <mxGeometry relative="1" as="geometry" />
        </mxCell>
        <mxCell id="a9we4a085A3KK1icnXQR-9" style="edgeStyle=orthogonalEdgeStyle;rounded=0;orthogonalLoop=1;jettySize=auto;html=1;entryX=0;entryY=0.5;entryDx=0;entryDy=0;" parent="1" source="a9we4a085A3KK1icnXQR-3" target="a9we4a085A3KK1icnXQR-6" edge="1">
          <mxGeometry relative="1" as="geometry" />
        </mxCell>
        <mxCell id="a9we4a085A3KK1icnXQR-10" style="rounded=0;orthogonalLoop=1;jettySize=auto;html=1;entryX=0;entryY=0.5;entryDx=0;entryDy=0;exitX=1;exitY=0.5;exitDx=0;exitDy=0;" parent="1" source="a9we4a085A3KK1icnXQR-3" target="a9we4a085A3KK1icnXQR-7" edge="1">
          <mxGeometry relative="1" as="geometry" />
        </mxCell>
        <mxCell id="a9we4a085A3KK1icnXQR-3" value="语料库检索式" style="rounded=1;whiteSpace=wrap;html=1;strokeWidth=2;fontFamily=宋体;" parent="1" vertex="1">
          <mxGeometry x="151" y="148" width="120" height="200" as="geometry" />
        </mxCell>
        <mxCell id="a9we4a085A3KK1icnXQR-5" value="" style="rounded=1;whiteSpace=wrap;html=1;fillColor=#dae8fc;strokeColor=#6c8ebf;fontFamily=宋体;" parent="1" vertex="1">
          <mxGeometry x="320" y="148" width="120" height="40" as="geometry" />
        </mxCell>
        <mxCell id="a9we4a085A3KK1icnXQR-6" value="" style="rounded=1;whiteSpace=wrap;html=1;fillColor=#dae8fc;strokeColor=#6c8ebf;fontFamily=宋体;" parent="1" vertex="1">
          <mxGeometry x="320" y="228" width="120" height="40" as="geometry" />
        </mxCell>
        <mxCell id="a9we4a085A3KK1icnXQR-26" style="edgeStyle=orthogonalEdgeStyle;rounded=0;orthogonalLoop=1;jettySize=auto;html=1;entryX=0;entryY=0.5;entryDx=0;entryDy=0;" parent="1" source="a9we4a085A3KK1icnXQR-7" target="a9we4a085A3KK1icnXQR-15" edge="1">
          <mxGeometry relative="1" as="geometry" />
        </mxCell>
        <mxCell id="a9we4a085A3KK1icnXQR-7" value="" style="rounded=1;whiteSpace=wrap;html=1;fillColor=#F8DADA;strokeColor=#b85450;fontFamily=宋体;" parent="1" vertex="1">
          <mxGeometry x="320" y="308" width="120" height="40" as="geometry" />
        </mxCell>
        <mxCell id="a9we4a085A3KK1icnXQR-28" style="edgeStyle=orthogonalEdgeStyle;rounded=0;orthogonalLoop=1;jettySize=auto;html=1;entryX=0.5;entryY=0;entryDx=0;entryDy=0;" parent="1" source="a9we4a085A3KK1icnXQR-12" target="a9we4a085A3KK1icnXQR-15" edge="1">
          <mxGeometry relative="1" as="geometry" />
        </mxCell>
        <mxCell id="a9we4a085A3KK1icnXQR-12" value="&lt;div&gt;&lt;font style=&quot;font-size: 40px;&quot;&gt;&lt;br&gt;&lt;/font&gt;&lt;/div&gt;&lt;div&gt;&lt;font style=&quot;font-size: 40px;&quot;&gt;&lt;br&gt;&lt;/font&gt;&lt;/div&gt;&lt;div&gt;&lt;font style=&quot;font-size: 40px;&quot;&gt;&lt;br&gt;&lt;/font&gt;&lt;/div&gt;&lt;div&gt;&lt;font style=&quot;font-size: 40px;&quot;&gt;&lt;br&gt;&lt;/font&gt;&lt;/div&gt;&lt;div&gt;&lt;font style=&quot;font-size: 40px;&quot;&gt;&lt;br&gt;&lt;/font&gt;&lt;/div&gt;&lt;div&gt;&lt;font style=&quot;font-size: 40px;&quot;&gt;&lt;br&gt;&lt;/font&gt;&lt;/div&gt;&lt;div&gt;&lt;br&gt;&lt;/div&gt;&lt;div&gt;&lt;span style=&quot;font-size: 40px; background-color: initial;&quot;&gt;📰&lt;/span&gt;&lt;br&gt;&lt;/div&gt;&lt;div&gt;&lt;br&gt;&lt;/div&gt;语料库" style="rounded=1;whiteSpace=wrap;html=1;strokeWidth=2;fillColor=#d5e8d4;strokeColor=#5B7D47;fontFamily=宋体;" parent="1" vertex="1">
          <mxGeometry x="480" y="-150" width="120" height="428" as="geometry" />
        </mxCell>
        <mxCell id="a9we4a085A3KK1icnXQR-29" style="edgeStyle=orthogonalEdgeStyle;rounded=0;orthogonalLoop=1;jettySize=auto;html=1;entryX=0.5;entryY=0;entryDx=0;entryDy=0;" parent="1" source="a9we4a085A3KK1icnXQR-15" target="a9we4a085A3KK1icnXQR-31" edge="1">
          <mxGeometry relative="1" as="geometry">
            <mxPoint x="539" y="378" as="targetPoint" />
          </mxGeometry>
        </mxCell>
        <mxCell id="a9we4a085A3KK1icnXQR-15" value="过滤" style="rounded=0;whiteSpace=wrap;html=1;strokeWidth=2;fillColor=#fff2cc;strokeColor=#d6b656;fontFamily=宋体;" parent="1" vertex="1">
          <mxGeometry x="480" y="308" width="120" height="40" as="geometry" />
        </mxCell>
        <mxCell id="et9xVsjZzK6za-cdgZDv-3" style="edgeStyle=orthogonalEdgeStyle;rounded=0;orthogonalLoop=1;jettySize=auto;html=1;entryX=0;entryY=0.5;entryDx=0;entryDy=0;" parent="1" source="a9we4a085A3KK1icnXQR-30" target="et9xVsjZzK6za-cdgZDv-2" edge="1">
          <mxGeometry relative="1" as="geometry" />
        </mxCell>
        <mxCell id="a9we4a085A3KK1icnXQR-30" value="❓️ CQL 查询" style="swimlane;whiteSpace=wrap;html=1;fillColor=#f5f5f5;fontColor=#333333;strokeColor=#666666;fontFamily=宋体;" parent="1" vertex="1">
          <mxGeometry x="-230" y="218" width="200" height="60" as="geometry" />
        </mxCell>
        <mxCell id="a9we4a085A3KK1icnXQR-31" value="📃 查询结果" style="swimlane;whiteSpace=wrap;html=1;fillColor=#f5f5f5;strokeColor=#666666;fontColor=#333333;fontFamily=宋体;" parent="1" vertex="1">
          <mxGeometry x="630" y="298" width="200" height="80" as="geometry" />
        </mxCell>
        <mxCell id="a9we4a085A3KK1icnXQR-32" style="edgeStyle=orthogonalEdgeStyle;rounded=0;orthogonalLoop=1;jettySize=auto;html=1;entryX=0;entryY=0.5;entryDx=0;entryDy=0;" parent="1" target="a9we4a085A3KK1icnXQR-36" edge="1">
          <mxGeometry relative="1" as="geometry">
            <mxPoint x="140" y="690" as="sourcePoint" />
          </mxGeometry>
        </mxCell>
        <mxCell id="a9we4a085A3KK1icnXQR-33" style="rounded=0;orthogonalLoop=1;jettySize=auto;html=1;entryX=0;entryY=0.5;entryDx=0;entryDy=0;exitX=1;exitY=0.5;exitDx=0;exitDy=0;" parent="1" source="a9we4a085A3KK1icnXQR-36" target="a9we4a085A3KK1icnXQR-39" edge="1">
          <mxGeometry relative="1" as="geometry" />
        </mxCell>
        <mxCell id="a9we4a085A3KK1icnXQR-34" style="edgeStyle=orthogonalEdgeStyle;rounded=0;orthogonalLoop=1;jettySize=auto;html=1;entryX=0;entryY=0.5;entryDx=0;entryDy=0;" parent="1" source="a9we4a085A3KK1icnXQR-36" target="a9we4a085A3KK1icnXQR-41" edge="1">
          <mxGeometry relative="1" as="geometry" />
        </mxCell>
        <mxCell id="a9we4a085A3KK1icnXQR-35" style="rounded=0;orthogonalLoop=1;jettySize=auto;html=1;entryX=0;entryY=0.5;entryDx=0;entryDy=0;exitX=1;exitY=0.5;exitDx=0;exitDy=0;" parent="1" source="a9we4a085A3KK1icnXQR-36" target="a9we4a085A3KK1icnXQR-43" edge="1">
          <mxGeometry relative="1" as="geometry" />
        </mxCell>
        <mxCell id="a9we4a085A3KK1icnXQR-36" value="&lt;div&gt;&lt;br&gt;&lt;/div&gt;&lt;div&gt;&lt;br&gt;&lt;/div&gt;&lt;div&gt;&lt;br&gt;&lt;/div&gt;ANTLR&amp;nbsp;&lt;span style=&quot;background-color: initial;&quot;&gt;解析器&lt;/span&gt;" style="rounded=1;whiteSpace=wrap;html=1;strokeWidth=2;" parent="1" vertex="1">
          <mxGeometry x="180" y="650" width="120" height="80" as="geometry" />
        </mxCell>
        <mxCell id="a9we4a085A3KK1icnXQR-37" value="" style="shape=image;verticalLabelPosition=bottom;labelBackgroundColor=default;verticalAlign=top;aspect=fixed;imageAspect=0;image=data:image/png,iVBORw0KGgoAAAANSUhEUgAAAMgAAADICAYAAACtWK6eAAAAAXNSR0IArs4c6QAAD/lJREFUeF7tnV9227YSh0HJLznHWUPdRTTtW52k+0i8ksQribOPxlHecpNFXHUNzTn3xRJuSIq2LIsiOPhhMMCMXpoegxQwM9/8A0g1zj4mAZPAqAQak41JwCQwLgEDxKzDJHBCAgaImYdJwAAxGzAJ0CRgEYQmN7tKiQQMECWKtmXSJGCA0ORmVymRgAGiRNG2TJoEDBCa3OwqJRIwQJQo2pZJk4ABQpObXaVEAgYIk6L/d/nHRftVd2fuotluLrxrfjn86qZpujHDx3u/bv/dOP9P+1+/WHb/f3bn1s9WX7t/2yetBAwQsHxbEO4W2zedYTf+sr99s/sv9Mt2gDSr7q5++6UF6PnfX/v/tw9EAgZIhBg7GM7chdtu/+xhSAICZYbrn3NZGTQU0T2+xgCZIcPH0cG9n3Fp7qEGDFEDBsiE4AYohEUIorrvL1t7727cYvHFUrLTojRAjsjnAYq2aPZvY61R+PUdLGfbxUcr/J9qygDZk8m/f/1x2Xj/RgEUI8z6lfPu4/nt9xvhULNNTz0gD9GiqJoitYFYVNlJWC0gBkYQY11xv9w011rTL3WAGBhBYBwO6kDxTfNRW1GvBhADgwTGkYv8arlZXmmJKNUDYmCgwHh0n65GeX777TrJ3QXdtGpA/n314l3TWPGd0N6qB6VKQNqosVluPgg6+pHQRkXceu2bxVWN9Ul1gFjUyAeM9+59bRuO1QBiUSMfGAffXFU0qQIQixpi4BgmUk1tUjQgfdTYfnbOPXrQSJy56J3QerlZvCy5JVwsIP25qQ4O+8iWQNHRpEhAfrz67a1rmg+y7cJmty+BtoAvcd+kOEB+vP79g97TtsVDtz7/9O3XklZRDCDWpSrJrE7Otai6pAhArBivBo77Llcpxbt4QKwYrw6Oh1ZwAbvvogExOKqFo5j9ErGAGBzVw1EEJCIBUQRHt0fQvjlxeOnb/hsYBb5vKxW1YvdKxAGiBI5ZBtE3Kfy7ytvbIs9wiQJk1636byo3JeO+fnX+6ftLylwUyEccJGIAUaB857y/in2ljoJTBKL2SUQAomETEHnUQsHpZTGQZAdEAxzO0dOqY6mYDpk5EcdSsgPy4/Vvn2t/NHa5WfyKPvKt43RBc3P+6T9XlHoNdU1WQBSkCpC6Y0zZGjp+yNSUAk02QDQot1XI+advyWSsJdXK+UKIZMqbovXH6xdtO7fyJwHTpwgKulqtKWUr2rMAoqHuaLWaovY4dDw6apF21dhGx5QDH/7ODogSj9f+LiFbgalFpjnqEVZAtNQdnb9rFi+5XqSmYpO1d+nsO+2sgGhJrXKkA4oeRWbdH2EDRJECWaPHkCsriiKOM9ViAURTatWmAbleTKAnQvN1tVgAUaS4pBuDU50XXY6Ip6uVHBAtHZbBeFNuDE4B0v5dkzPiaISkB0TFhmBvupy5sebjJ3trT57OJgXEokeIz8eOUXL8ZE9oafeb0gLy+oXHql/y3dIqas7KlTmmpFEkGSCa2rpcx0pCIdHU8u1lks45JQHEFBRqyunGKXNQyaJIEkA0dVK4j5WEImVOKlRSp8fBAdGnGGw/vpUf6ulDZY4qSRSBA6IstEOPlfTFtXtDfS3QoS/U56zwtUgCQDR1rrDHSoaHyJAbYBZF4lItKCDK2ovQYyWPZYfzhLqOn+AfM8AComjXvPVLyGMlPx7vGUHzaV1RBFsTwgDRFj2Qx0qO1m2AtzAOyYU63QAfVsMBouy3A1HPm58opGFRRM9z64NLwKWoQEA0Fec4BZzq+kGLdV2/DAxzLhBAtIVwVPToj6efciw4ELW1fFHOBQOIgteHPjQLcUYb4Fig74PStUeFKdZBgOhJr1CeaRc9Jl+eh2wGKIsikDQrGpAALxi3UyPqaoxX6uAIrwkgir7vaClqpiCcWTwgmtIrZOt1hqEiFD0AoiuKxKfDAEDUpFdgTz5HbrjI1ad29f/kxM4hROssCpAZaYKoRIk0GWD0oPzsAzKKaDp+Eiu3OEBmpAkkoxR0EfhYyWRx/nTp8enC/j21RJHYJkckIBp+wgD7SGdE1I1OF/YB0RNF4tLTWEBUvJQBuzEYkf8D0zxFbz+JcixkQCI8oaDEKWQquNQG4LWjlH24Wi06jKlD6IAoqT+w0eP3D875tyFYjo2JUbbaJw4jIm8EIBrqD1z0mD53FYpNXE59+C2UjlroTOWMo+sxBpDq6w+ktwYaIvRHZJRsHJJTUxIggFxajnMZnQnWU2N/tJTuEY8tV0HLlxcQFcVdRN7KUAyTFX4MEA1RhJoNkCKIhmPT2I3BiNbuaLXur85vv9+gQnHtUYS6YWiAHLMwYPRImI5Co0jCeaIYjrwPLWUmAlJ3BwsbPeJbu3wt380H55rLSEsUerkBAlIMugCec2p37hJoSh/7lsprS1LEpUaQalu8yI1BYGt3zKat5RvuU3gAqTtXhUcPwqndcI33I7FzZoB67gJh4ymp8+wIUnMYprYCj+4thD9SG2sAJM849qU1t3wp2YEBcm8pWE+M3RicYAjYdWu/qdY2PsUBGiA726MIT1CxC40itabRFB3PBqTOHBXcDcrwzDdF+afiUo0bh5TNQgOktRJgipLP+4Ih56uhYmuw4OtZAKkxP6V0N0bTqwzRYzcXa/lOojK/zpwdQeoDZL7Q5HaAcGupsVi3CDLpQZ4OoLT+xqNHumMlgUuDvsu3tpavARJoRQ/D0B435bGS0MWh15TgJHLoUsDjDJC5AkUW569evGsa937uFBKMh0aRfE0HvGQMkJkyxRbnkk4446JITWmWATILEJwRCTx+g40icqLjLA0fDmYBpJaNQuTGGuuxkmATwTmAWqKIARJsPLhNNYHRY5AC9PhJDTvrLIAINohgPJA755INh2IQY0KsolgnNGVmbxTWIChUcV6ALGBRpIp3+Rog00EE6VVLOFUArbUKP59F2RSeHUFKL9goQhrfOZewMTjlFHD1lkbdKwME19kpIXoMhxiXm8XLZ6uv6ymUQv5e0LqfLIeSWs8GpD/EVoLnfKpuaLpRkAyQaWXBUYRUjxEBKfF8Di7VKLCTRzKO8dSyRP3TsgciINlPrYZkA4/GgKMHw9tKZi/x5AXI9RfQvTsiC0ZACtxNh3nQAqPHzlhwEbRPs8uKItQ0kxRBivMghP53fHrRwF4sjYgl3vv189tv14h7tffQYgMkQEor1Cjdi2OGNNMooI/AogwbdZ/SNg6p7X0SILtOVhl5eJbocW+Ga+/dzdl28RHVZkUZOOI+JaWbVCcZAUgZOShVMIcGFBk1O1CQKQ7CwGPvsZPJZ+fcRey90l5PK9DbOZEBKaNQpwvmUGGgDbK18/4a+cM3aQ1r+u5FRJGILIIOyF9/XDZ+23oPsR9q3nlsQeDNUegDTTkVEBlZWaYeYwdkQOQLBhg90hzSq6Y+kR5FYtJsMiDSe+ExXuNpepX0efPi6xPZzjLOUUYBIrcOiRPKPiCM3rHo+gRUo8FTLuoG4TCRKECkeg7ksYoMO8ZF1ie12kIUIDLTLNyRioxKLzLtyuBMJiNOTP0R1eYdZiYttGKjR/ZDmUWBktGhjIASn2pHR5CZxy8miY8bgIseu9MCUn6stJj6RFIUQTjLaEBEeY2IDaEnnas0rd04/p1fLTfLK8nHViQ5zNj0CpJiSapDEAJ5SB3FHqURn3bJiCLx6RUMEBFeAxg9RKxnOtaIBYWxNT4qJdQ+WHSKJcXjYqNH9uJ8Go+HEeLqEwFpN+wBORwgWXN2TDh9gL3Il1KIev4ka3cTmE3AAMnpNVDhtAVE7umA0KDS3Cw3zXXuQj5nmoq0Bxgg+Yp1ePQo40Gw07yIqE/yFOtYe4ACksVrAMOphOIyNE4EjssKSg55IvY+9mULBSRHFEGG0zweL9DU44ZlKeT5027sRjGszbuvO26vgepeZYl+cUZPuZq9kAc/aHZyzejokQQQ5rddwNp5WbsuFFOnX7N2rllxFfJ8gOCjRxJAuk4Q4+O4qAjCp0i6ZYOvZKlPuOSaInokA4SzFkEIhjstBBt67O2SgcIn1zTRIykgfFEkvq3H5eViLTnx9fBCnqvpgXCSY7KFd7EeFew872+NegJPUe0RyleUPIcv4XOQ6aJH0gjCXIuQinU+JYbapphxUW9c4WzvpoweyQHhrEWcm+dJDI4gGGfXJ7xvW4xPr6ekkDTFar+c05s45yb7/O187hbbN03j3k8Jx/5+L4EgUJjPsZGyhrk6TQ5IF0X4T/p2CnWLxZezO7e+O3MXzXZz4V3zi4Ex10Qeje/2UJzffvGLZfebh7nkmjq1GlbNAghvqhVlAHZxERKYl07HLIkNEOZUK0Ymdq1wCSDP300tlQ2QTKnW1Prt76VJAHh6O2TprIBYqhWiEhszLgG+1Iq9Bhm+0FItA4AqAc7UKhsglmpRzUP3dVxdq0Mps6dYwwSYe+a6ravw1ce+oT1m+dkAYX5uJEZGdm1WCfDXHfvLzQZIOwneYwlZtWxfTpMAy275qallBWQPkvZNIvYxCTySQK66Q0wEGSaS4SiKmaJwCUiAoxVR9ghiRbtwS80wPSlwiAKknYx1tjJYo7CvlASHOEAMEmHWyj0d5mMkIcsTk2LtT9YiSYjqKhsjEA6REcRqksoMP2g56Z8MDJrGkUEiI4hBQlVnedfl3CUPkZZoQKwmCVFhuWOkFeTHJCkeEIOkXABOzbwEOETXIIfCtbeQVAPK5Is1JK20iAgyCMzObkkyHdJcsp+tmjvrogBpF2ev7ZmrYinj857KpUqhOEAMEqqq810nvVN1SjJFAjIsyA455jP6wG8uqt4otot1Shn24FWgqTIPKzlq7Iuq6AiyvxA7nsJMwPjXFR81qgTEahMJgJRZiFdbg4wtzKIJOyxVRY1qI8j+wqwdzAJJ0FvfWWaS6EuqqUHG5NMX8f6dc/5tIhmqvG0tRfiU8qoHZBCAdbumTCH073613Cyvnq2+dj9/UPtHDSCDIvszXZt3P3/n4rJ25WLXpwuMQXbqABkW3m8yujcGymmM2lTqbLv4qCViHEpDLSD7qZf9JNsTSKovvkOjq3pAHtUoi82l8qhiYByQY4AccSV7na+2TrkI9TaFjjMoTijOAJmw6of9FH9ZUb1iUAR6MwMkUFDtsC6ylJmGrX/uA629b1bPb79dz1iy+qEGCNEEWljaS3tgFn86t70QFGG6CNE4/8/57fcb4hLtMknv5q1BGyPQtCClqGN2G3V9ZOjkt1h8ef731/7f9oFIwCIIRIzTNxnguTtzF8120wPTRR7nvPeTu9JtNPCL5frszq217klMSxk/wgDBy9TuWJEEDJCKlGlLwUvAAMHL1O5YkQQMkIqUaUvBS8AAwcvU7liRBAyQipRpS8FLwADBy9TuWJEEDJCKlGlLwUvAAMHL1O5YkQQMkIqUaUvBS8AAwcvU7liRBAyQipRpS8FL4P+j4Ylf5zKEYgAAAABJRU5ErkJggg==;" parent="1" vertex="1">
          <mxGeometry x="221" y="661" width="40" height="40" as="geometry" />
        </mxCell>
        <mxCell id="a9we4a085A3KK1icnXQR-38" style="edgeStyle=orthogonalEdgeStyle;rounded=0;orthogonalLoop=1;jettySize=auto;html=1;entryX=0;entryY=0.5;entryDx=0;entryDy=0;" parent="1" source="a9we4a085A3KK1icnXQR-39" target="a9we4a085A3KK1icnXQR-45" edge="1">
          <mxGeometry relative="1" as="geometry" />
        </mxCell>
        <mxCell id="a9we4a085A3KK1icnXQR-39" value="检索单元" style="rounded=1;whiteSpace=wrap;html=1;fillColor=#dae8fc;strokeColor=#6c8ebf;" parent="1" vertex="1">
          <mxGeometry x="350" y="590" width="120" height="40" as="geometry" />
        </mxCell>
        <mxCell id="a9we4a085A3KK1icnXQR-40" style="edgeStyle=orthogonalEdgeStyle;rounded=0;orthogonalLoop=1;jettySize=auto;html=1;entryX=0;entryY=0.5;entryDx=0;entryDy=0;" parent="1" source="a9we4a085A3KK1icnXQR-41" target="a9we4a085A3KK1icnXQR-45" edge="1">
          <mxGeometry relative="1" as="geometry" />
        </mxCell>
        <mxCell id="a9we4a085A3KK1icnXQR-41" value="检索范围" style="rounded=1;whiteSpace=wrap;html=1;fillColor=#dae8fc;strokeColor=#6c8ebf;" parent="1" vertex="1">
          <mxGeometry x="350" y="670" width="120" height="40" as="geometry" />
        </mxCell>
        <mxCell id="a9we4a085A3KK1icnXQR-42" style="edgeStyle=orthogonalEdgeStyle;rounded=0;orthogonalLoop=1;jettySize=auto;html=1;entryX=0;entryY=0.5;entryDx=0;entryDy=0;" parent="1" source="a9we4a085A3KK1icnXQR-43" target="a9we4a085A3KK1icnXQR-47" edge="1">
          <mxGeometry relative="1" as="geometry" />
        </mxCell>
        <mxCell id="a9we4a085A3KK1icnXQR-43" value="约束条件" style="rounded=1;whiteSpace=wrap;html=1;fillColor=#F8DADA;strokeColor=#b85450;" parent="1" vertex="1">
          <mxGeometry x="350" y="750" width="120" height="40" as="geometry" />
        </mxCell>
        <mxCell id="a9we4a085A3KK1icnXQR-44" style="edgeStyle=orthogonalEdgeStyle;rounded=0;orthogonalLoop=1;jettySize=auto;html=1;entryX=0.5;entryY=0;entryDx=0;entryDy=0;" parent="1" source="a9we4a085A3KK1icnXQR-45" target="a9we4a085A3KK1icnXQR-47" edge="1">
          <mxGeometry relative="1" as="geometry" />
        </mxCell>
        <mxCell id="a9we4a085A3KK1icnXQR-45" value="&lt;div&gt;&lt;font style=&quot;font-size: 40px;&quot;&gt;📰&lt;/font&gt;&lt;/div&gt;&lt;div&gt;&lt;br&gt;&lt;/div&gt;语料库" style="rounded=1;whiteSpace=wrap;html=1;strokeWidth=2;fillColor=#d5e8d4;strokeColor=#5B7D47;" parent="1" vertex="1">
          <mxGeometry x="509" y="580" width="120" height="140" as="geometry" />
        </mxCell>
        <mxCell id="IdJRExplNREmoRe3S82U-1" style="edgeStyle=orthogonalEdgeStyle;rounded=0;orthogonalLoop=1;jettySize=auto;html=1;entryX=0;entryY=0.5;entryDx=0;entryDy=0;" parent="1" source="a9we4a085A3KK1icnXQR-47" target="a9we4a085A3KK1icnXQR-49" edge="1">
          <mxGeometry relative="1" as="geometry" />
        </mxCell>
        <mxCell id="a9we4a085A3KK1icnXQR-47" value="过滤" style="rounded=0;whiteSpace=wrap;html=1;strokeWidth=2;fillColor=#fff2cc;strokeColor=#d6b656;" parent="1" vertex="1">
          <mxGeometry x="509" y="750" width="120" height="40" as="geometry" />
        </mxCell>
        <mxCell id="a9we4a085A3KK1icnXQR-48" value="❓️ CQL 查询" style="swimlane;whiteSpace=wrap;html=1;fillColor=#f5f5f5;fontColor=#333333;strokeColor=#666666;" parent="1" vertex="1">
          <mxGeometry x="-60" y="660" width="200" height="60" as="geometry" />
        </mxCell>
        <mxCell id="a9we4a085A3KK1icnXQR-49" value="📃 查询结果" style="swimlane;whiteSpace=wrap;html=1;fillColor=#f5f5f5;strokeColor=#666666;fontColor=#333333;" parent="1" vertex="1">
          <mxGeometry x="680" y="730" width="200" height="80" as="geometry" />
        </mxCell>
        <mxCell id="et9xVsjZzK6za-cdgZDv-4" style="edgeStyle=orthogonalEdgeStyle;rounded=0;orthogonalLoop=1;jettySize=auto;html=1;entryX=0;entryY=0.5;entryDx=0;entryDy=0;" parent="1" source="et9xVsjZzK6za-cdgZDv-2" target="a9we4a085A3KK1icnXQR-3" edge="1">
          <mxGeometry relative="1" as="geometry" />
        </mxCell>
        <mxCell id="et9xVsjZzK6za-cdgZDv-2" value="基于 ANTLR 解析" style="rounded=1;whiteSpace=wrap;html=1;fontFamily=宋体;" parent="1" vertex="1">
          <mxGeometry y="218" width="120" height="60" as="geometry" />
        </mxCell>
        <mxCell id="Hc0L2odZ3vd23eVe25mG-3" value="检索单元" style="text;html=1;align=center;verticalAlign=middle;whiteSpace=wrap;rounded=0;fontFamily=宋体;fontStyle=1" parent="1" vertex="1">
          <mxGeometry x="379" y="188" width="60" height="30" as="geometry" />
        </mxCell>
        <mxCell id="Hc0L2odZ3vd23eVe25mG-4" value="检索范围" style="text;html=1;align=center;verticalAlign=middle;whiteSpace=wrap;rounded=0;fontFamily=宋体;fontStyle=1" parent="1" vertex="1">
          <mxGeometry x="380" y="268" width="60" height="30" as="geometry" />
        </mxCell>
        <mxCell id="Hc0L2odZ3vd23eVe25mG-5" value="约束条件" style="text;html=1;align=center;verticalAlign=middle;whiteSpace=wrap;rounded=0;fontFamily=宋体;fontStyle=1" parent="1" vertex="1">
          <mxGeometry x="380" y="348" width="60" height="30" as="geometry" />
        </mxCell>
        <mxCell id="Hc0L2odZ3vd23eVe25mG-45" value="" style="group" parent="1" vertex="1" connectable="0">
          <mxGeometry x="-268" y="-50" width="199" height="80" as="geometry" />
        </mxCell>
        <mxCell id="Hc0L2odZ3vd23eVe25mG-37" value="原始语料" style="text;html=1;align=center;verticalAlign=middle;whiteSpace=wrap;rounded=0;fontFamily=宋体;fontStyle=1;fontSize=16;" parent="Hc0L2odZ3vd23eVe25mG-45" vertex="1">
          <mxGeometry width="72.03619909502262" height="18.896" as="geometry" />
        </mxCell>
        <mxCell id="Hc0L2odZ3vd23eVe25mG-32" value="" style="rounded=1;whiteSpace=wrap;html=1;sketch=1;curveFitting=1;jiggle=2;fillColor=#CADCFC;strokeColor=none;" parent="Hc0L2odZ3vd23eVe25mG-45" vertex="1">
          <mxGeometry y="18.897637795275593" width="199" height="61.102362204724415" as="geometry" />
        </mxCell>
        <mxCell id="Hc0L2odZ3vd23eVe25mG-38" value="" style="shape=image;verticalLabelPosition=bottom;labelBackgroundColor=default;verticalAlign=top;aspect=fixed;imageAspect=0;image=data:image/svg+xml,PHN2ZyB4bWxuczp4bGluaz0iaHR0cDovL3d3dy53My5vcmcvMTk5OS94bGluayIgeG1sbnM9Imh0dHA6Ly93d3cudzMub3JnLzIwMDAvc3ZnIiBoZWlnaHQ9IjIwMCIgd2lkdGg9IjIwMCIgdmVyc2lvbj0iMS4xIiB2aWV3Qm94PSIwIDAgMTAyNCAxMDI0IiBjbGFzcz0iaWNvbiI+PHBhdGggZmlsbD0iI0ZGNkUxRCIgZD0iTTM2NC45MzYxNyA1NTkuOTMxOTE1di0yNy4yMzQwNDNIMTYzLjQwNDI1NXYxNjMuNDA0MjU2aDIwMS41MzE5MTVWNjI1LjI5MzYxN2ExNi4zNDA0MjYgMTYuMzQwNDI2IDAgMCAxIDE2LjM0MDQyNi0xNi4zNDA0MjZ2LTMyLjY4MDg1MWExNi4zNDA0MjYgMTYuMzQwNDI2IDAgMCAxLTE2LjM0MDQyNi0xNi4zNDA0MjV6Ii8+PHBhdGggZmlsbD0iI0ZGQ0M3NSIgZD0iTTcxMC4yNjM4MyAyNDIuOTI3NjZoMTI3LjIyNDM3NEw3MTAuMjYzODMgMTE1LjcwMzI4NXoiLz48cGF0aCBmaWxsPSIjRkZGRkZGIiBkPSJNOTQyLjI5Nzg3MiA4OTguNzIzNDA0aC02NS4zNjE3MDJhMTYuMzM4MjQ3IDE2LjMzODI0NyAwIDAgMS0xNi4zNDA0MjUtMTYuMzQwNDI1VjI3NS42MDg1MTFoLTE2Ni42NzIzNDFhMTYuMzM4MjQ3IDE2LjMzODI0NyAwIDAgMS0xNi4zNDA0MjUtMTYuMzQwNDI2VjkyLjU5NTc0NUgzMi42ODA4NTFWODgyLjM4Mjk3OWMwIDI3LjAyOTI0MyAyMS45ODk4NTUgNDkuMDIxMjc3IDQ5LjAyMTI3NyA0OS4wMjEyNzZoODYwLjU5NTc0NGMyNy4wMjkyNDMgMCA0OS4wMjEyNzctMjEuOTkyMDM0IDQ5LjAyMTI3Ny00OS4wMjEyNzZoLTMyLjY4MDg1MWMwIDkuMDI2NDUxLTcuMzEzOTc0IDE2LjM0MDQyNi0xNi4zNDA0MjYgMTYuMzQwNDI1ek0zMjIuMzUwODQzIDMwNy4yNzQwNzdsNTcuMTg3MTMxLTQzLjU3NDQ2OGExNi4zNDY5NjIgMTYuMzQ2OTYyIDAgMCAxIDE5LjgwNjc3NSAwbDQ3LjI4NzAxMyAzNi4wMjk1NDggNDcuMjkzNTQ5LTM2LjAyOTU0OGExNi4zNDI2MDQgMTYuMzQyNjA0IDAgMCAxIDE5LjgwNDU5NSAwbDU3LjE5NTg0NyA0My41NzQ0NjhhMTYuMzQwNDI2IDE2LjM0MDQyNiAwIDAgMS05LjkxNTM3IDI5LjMzODY4OSAxNi4yNTMyNzcgMTYuMjUzMjc3IDAgMCAxLTkuODg5MjI2LTMuMzQyMTYybC00Ny4yOTM1NDgtMzYuMDI5NTQ5LTQ3LjI5NTcyOCAzNi4wMjk1NDlhMTYuMzQyNjA0IDE2LjM0MjYwNCAwIDAgMS0xOS44MDQ1OTYgMGwtNDcuMjg0ODM0LTM2LjAyOTU0OS00Ny4yODA0NzcgMzYuMDI5NTQ5YTE2LjM0MDQyNiAxNi4zNDA0MjYgMCAxIDEtMTkuODExMTMxLTI1Ljk5NjUyN3pNMzgxLjI3NjU5NiA4MjYuODI1NTMySDE0Ny4wNjM4M2MtOS4wMjQyNzIgMC0xNi4zNDA0MjYtNy4zMTM5NzQtMTYuMzQwNDI2LTE2LjM0MDQyNnM3LjMxNjE1My0xNi4zNDA0MjYgMTYuMzQwNDI2LTE2LjM0MDQyNUgzODEuMjc2NTk2YzkuMDI0MjcyIDAgMTYuMzQwNDI2IDcuMzEzOTc0IDE2LjM0MDQyNSAxNi4zNDA0MjVzLTcuMzE2MTUzIDE2LjM0MDQyNi0xNi4zNDA0MjUgMTYuMzQwNDI2eiBtMTYuMzQwNDI1LTI2Ni44OTM2MTdhMTYuMzQwNDI2IDE2LjM0MDQyNiAwIDAgMS0xNi4zNDA0MjUgMTYuMzQwNDI1djMyLjY4MDg1MWExNi4zNDA0MjYgMTYuMzQwNDI2IDAgMCAxIDE2LjM0MDQyNSAxNi4zNDA0MjZ2ODcuMTQ4OTM2YTE2LjM0MDQyNiAxNi4zNDA0MjYgMCAwIDEtMTYuMzQwNDI1IDE2LjM0MDQyNkgxNDcuMDYzODNBMTYuMzQwNDI2IDE2LjM0MDQyNiAwIDAgMSAxMzAuNzIzNDA0IDcxMi40NDI1NTN2LTE5Ni4wODUxMDZhMTYuMzQwNDI2IDE2LjM0MDQyNiAwIDAgMSAxNi4zNDA0MjYtMTYuMzQwNDI2SDM4MS4yNzY1OTZhMTYuMzQwNDI2IDE2LjM0MDQyNiAwIDAgMSAxNi4zNDA0MjUgMTYuMzQwNDI2djQzLjU3NDQ2OHogbTM0OC41OTU3NDUgMjY2Ljg5MzYxN0g1MTJjLTkuMDI0MjcyIDAtMTYuMzQwNDI2LTcuMzEzOTc0LTE2LjM0MDQyNi0xNi4zNDA0MjZzNy4zMTYxNTMtMTYuMzQwNDI2IDE2LjM0MDQyNi0xNi4zNDA0MjVoMjM0LjIxMjc2NmM5LjAyNjQ1MSAwIDE2LjM0MDQyNiA3LjMxMzk3NCAxNi4zNDA0MjUgMTYuMzQwNDI1cy03LjMxMzk3NCAxNi4zNDA0MjYtMTYuMzQwNDI1IDE2LjM0MDQyNnogbTAtOTguMDQyNTUzSDUxMmMtOS4wMjQyNzIgMC0xNi4zNDA0MjYtNy4zMTM5NzQtMTYuMzQwNDI2LTE2LjM0MDQyNnM3LjMxNjE1My0xNi4zNDA0MjYgMTYuMzQwNDI2LTE2LjM0MDQyNWgyMzQuMjEyNzY2YzkuMDI2NDUxIDAgMTYuMzQwNDI2IDcuMzEzOTc0IDE2LjM0MDQyNSAxNi4zNDA0MjVzLTcuMzEzOTc0IDE2LjM0MDQyNi0xNi4zNDA0MjUgMTYuMzQwNDI2eiBtMC05OC4wNDI1NTNINTEyYy05LjAyNDI3MiAwLTE2LjM0MDQyNi03LjMxMzk3NC0xNi4zNDA0MjYtMTYuMzQwNDI2czcuMzE2MTUzLTE2LjM0MDQyNiAxNi4zNDA0MjYtMTYuMzQwNDI2aDIzNC4yMTI3NjZjOS4wMjY0NTEgMCAxNi4zNDA0MjYgNy4zMTM5NzQgMTYuMzQwNDI1IDE2LjM0MDQyNnMtNy4zMTM5NzQgMTYuMzQwNDI2LTE2LjM0MDQyNSAxNi4zNDA0MjZ6IG0wLTk4LjA0MjU1NEg1MTJjLTkuMDI0MjcyIDAtMTYuMzQwNDI2LTcuMzEzOTc0LTE2LjM0MDQyNi0xNi4zNDA0MjVzNy4zMTYxNTMtMTYuMzQwNDI2IDE2LjM0MDQyNi0xNi4zNDA0MjZoMjM0LjIxMjc2NmM5LjAyNjQ1MSAwIDE2LjM0MDQyNiA3LjMxMzk3NCAxNi4zNDA0MjUgMTYuMzQwNDI2cy03LjMxMzk3NCAxNi4zNDA0MjYtMTYuMzQwNDI1IDE2LjM0MDQyNXogbTAtOTguMDQyNTUzaC01OTkuMTQ4OTM2Yy05LjAyNDI3MiAwLTE2LjM0MDQyNi03LjMxMzk3NC0xNi4zNDA0MjYtMTYuMzQwNDI1czcuMzE2MTUzLTE2LjM0MDQyNiAxNi4zNDA0MjYtMTYuMzQwNDI2aDU5OS4xNDg5MzZjOS4wMjY0NTEgMCAxNi4zNDA0MjYgNy4zMTM5NzQgMTYuMzQwNDI1IDE2LjM0MDQyNnMtNy4zMTM5NzQgMTYuMzQwNDI2LTE2LjM0MDQyNSAxNi4zNDA0MjV6Ii8+PHBhdGggZmlsbD0iI0YyRUJEOSIgZD0iTTg4OC43MzE3NzkgMjQ3Ljk3Nzk0YzAuMjg1NDEzIDAuMjk4NDg1IDAuNTY4NjQ3IDAuNTk2OTcgMC44MzAwOTMgMC45MTcyNDMgMC4wOTM2ODUgMC4xMTMyOTQgMC4xNzQyOTggMC4yMzc0ODEgMC4yNjM2MjYgMC4zNTI5NTMgMC4yMzc0ODEgMC4zMDUwMjEgMC40NzQ5NjIgMC42MTIyMjEgMC42OTA2NTUgMC45MzQ2NzMgMC4wNjUzNjIgMC4wOTgwNDMgMC4xMTk4MyAwLjIwMjYyMSAwLjE4MzAxMyAwLjMwMDY2MyAwLjIyNDQwOSAwLjM1MDc3NCAwLjQ0NDQ2IDAuNzA1OTA2IDAuNjQyNzIzIDEuMDc0MTExIDAuMDM0ODYgMC4wNjUzNjIgMC4wNjMxODMgMC4xMzcyNiAwLjA5ODA0MyAwLjIwMjYyMSAwLjIxMTMzNiAwLjQwNzQyMSAwLjQxMTc3OSAwLjgxOTIgMC41ODgyNTUgMS4yNDYyMyAwLjAxNzQzIDAuMDQxMzk2IDAuMDI4MzIzIDAuMDgyNzkxIDAuMDQzNTc1IDAuMTIyMDA5IDAuMTgzMDEzIDAuNDUwOTk2IDAuMzUwNzc0IDAuOTA4NTI4IDAuNDk0NTcgMS4zNzkxMzEgMC4wMTUyNTEgMC4wNDc5MzIgMC4wMjM5NjYgMC4wOTgwNDMgMC4wMzcwMzggMC4xNDU5NzUgMC4xMzUwODEgMC40NTc1MzIgMC4yNTcwODkgMC45MjE2IDAuMzUwNzc1IDEuMzk4NzQgMC4wMjYxNDUgMC4xMzA3MjMgMC4wMzcwMzggMC4yNjU4MDQgMC4wNjEwMDQgMC4zOTg3MDcgMC4wNjc1NCAwLjM5MjE3IDAuMTM3MjYgMC43ODQzNCAwLjE3NjQ3NyAxLjE4NTIyNSAwLjA1NDQ2OCAwLjU0MDMyMyAwLjA4Mjc5MSAxLjA4NTAwNCAwLjA4Mjc5MSAxLjYzMTg2NHY2MDYuNzc0NDY4aDQ5LjAyMTI3N2M5LjAyNjQ1MSAwIDE2LjM0MDQyNiA3LjMxMzk3NCAxNi4zNDA0MjUgMTYuMzQwNDI2aDMyLjY4MDg1MVYxNzkuNzQ0NjgxaC0xMTcuODA3OTMyYTE2LjMzODI0NyAxNi4zMzgyNDcgMCAwIDEtMTYuMzQwNDI1LTE2LjM0MDQyNmgtNTIuOTg2NTUzbDg0LjMwNzg4IDg0LjMwNzg4MWMwLjA4NzE0OSAwLjA4NDk3IDAuMTU5MDQ3IDAuMTc4NjU1IDAuMjQxODM5IDAuMjY1ODA0eiIvPjxwYXRoIGZpbGw9IiMwODI5NDciIGQ9Ik0zNDIuMTU5Nzk2IDMzMy4yNzA2MDRsNDcuMjgwNDc2LTM2LjAyOTU0OSA0Ny4yODQ4MzQgMzYuMDI5NTQ5YTE2LjM0MjYwNCAxNi4zNDI2MDQgMCAwIDAgMTkuODA0NTk2IDBsNDcuMjk1NzI4LTM2LjAyOTU0OSA0Ny4yOTM1NDkgMzYuMDI5NTQ5YTE2LjI1MzI3NyAxNi4yNTMyNzcgMCAwIDAgOS44ODkyMjUgMy4zNDIxNjIgMTYuMzQwNDI2IDE2LjM0MDQyNiAwIDAgMCA5LjkxNTM3LTI5LjMzODY4OWwtNTcuMTk1ODQ2LTQzLjU3NDQ2OGExNi4zNDI2MDQgMTYuMzQyNjA0IDAgMCAwLTE5LjgwNDU5NiAwbC00Ny4yOTM1NDkgMzYuMDI5NTQ4LTQ3LjI4NzAxMy0zNi4wMjk1NDhhMTYuMzQ2OTYyIDE2LjM0Njk2MiAwIDAgMC0xOS44MDY3NzQgMGwtNTcuMTg3MTMyIDQzLjU3NDQ2OGExNi4zNDI2MDQgMTYuMzQyNjA0IDAgMCAwIDE5LjgxMTEzMiAyNS45OTY1Mjd6Ii8+PHBhdGggZmlsbD0iIzA4Mjk0NyIgZD0iTTEwMDcuNjU5NTc0IDE0Ny4wNjM4M2gtMTM0LjE0ODM1N2MtOS4wMjY0NTEgMC0xNi4zNDA0MjYgNy4zMTM5NzQtMTYuMzQwNDI2IDE2LjM0MDQyNXM3LjMxMzk3NCAxNi4zNDA0MjYgMTYuMzQwNDI2IDE2LjM0MDQyNkg5OTEuMzE5MTQ5Vjg4Mi4zODI5NzljMCAyNy4wMjkyNDMtMjEuOTkyMDM0IDQ5LjAyMTI3Ny00OS4wMjEyNzcgNDkuMDIxMjc2aC04NjAuNTk1NzQ0QzU0LjY3MDcwNiA5MzEuNDA0MjU1IDMyLjY4MDg1MSA5MDkuNDEyMjIxIDMyLjY4MDg1MSA4ODIuMzgyOTc5VjkyLjU5NTc0NWg2NDQuOTAyMTI4VjI1OS4yNjgwODVjMCA5LjAyNjQ1MSA3LjMxMzk3NCAxNi4zNDA0MjYgMTYuMzQwNDI1IDE2LjM0MDQyNkg4NjAuNTk1NzQ1Vjg4Mi4zODI5NzljMCA5LjAyNjQ1MSA3LjMxMzk3NCAxNi4zNDA0MjYgMTYuMzQwNDI1IDE2LjM0MDQyNWg2NS4zNjE3MDJjOS4wMjY0NTEgMCAxNi4zNDA0MjYtNy4zMTM5NzQgMTYuMzQwNDI2LTE2LjM0MDQyNXMtNy4zMTM5NzQtMTYuMzQwNDI2LTE2LjM0MDQyNi0xNi4zNDA0MjZIODkzLjI3NjU5NlYyNTkuMjY4MDg1YzAtMC41NDY4Ni0wLjAyODMyMy0xLjA5MTU0LTAuMDgyNzkyLTEuNjMxODY0LTAuMDM5MjE3LTAuNDAwODg1LTAuMTA4OTM2LTAuNzkzMDU1LTAuMTc2NDc2LTEuMTg1MjI1LTAuMDIzOTY2LTAuMTMyOTAyLTAuMDM0ODYtMC4yNjc5ODMtMC4wNjEwMDUtMC4zOTg3MDdhMTUuODEwOTk2IDE1LjgxMDk5NiAwIDAgMC0wLjM1MDc3NC0xLjM5ODc0Yy0wLjAxMzA3Mi0wLjA0NzkzMi0wLjAyMTc4Ny0wLjA5ODA0My0wLjAzNzAzOC0wLjE0NTk3NWExNi40NDUwMDQgMTYuNDQ1MDA0IDAgMCAwLTAuNDk0NTcxLTEuMzc5MTMxbC0wLjA0MzU3NC0wLjEyMjAwOWExNi4yNTMyNzcgMTYuMjUzMjc3IDAgMCAwLTAuNTg4MjU1LTEuMjQ2MjNjLTAuMDM0ODYtMC4wNjUzNjItMC4wNjEwMDQtMC4xMzcyNi0wLjA5ODA0My0wLjIwMjYyMWExNi42NDU0NDcgMTYuNjQ1NDQ3IDAgMCAwLTAuNjQyNzIzLTEuMDc0MTExYy0wLjA2MzE4My0wLjA5ODA0My0wLjExNzY1MS0wLjIwMjYyMS0wLjE4MzAxMy0wLjMwMDY2M2ExNi4xNTMwNTUgMTYuMTUzMDU1IDAgMCAwLTAuNjkwNjU1LTAuOTM0NjczYy0wLjA5MTUwNi0wLjExNTQ3Mi0wLjE2OTk0LTAuMjM5NjYtMC4yNjM2MjYtMC4zNTI5NTNhMTYuNDk5NDcyIDE2LjQ5OTQ3MiAwIDAgMC0wLjgzMDA5NC0wLjkxNzI0M2MtMC4wODI3OTEtMC4wODcxNDktMC4xNTQ2ODktMC4xODA4MzQtMC4yMzk2NTktMC4yNjU4MDRsLTE4My4wMTI3NjYtMTgzLjAxMjc2NmMtMC4wODQ5Ny0wLjA4NDk3LTAuMTc4NjU1LTAuMTU2ODY4LTAuMjY1ODA0LTAuMjM5NjU5YTE2LjQ5OTQ3MiAxNi40OTk0NzIgMCAwIDAtMC45MTcyNDMtMC44MzAwOTRjLTAuMTEzMjk0LTAuMDkzNjg1LTAuMjM3NDgxLTAuMTc0Mjk4LTAuMzUyOTUzLTAuMjY1ODA0YTE2Ljg4OTQ2NCAxNi44ODk0NjQgMCAwIDAtMC45MzI0OTQtMC42OTA2NTZjLTAuMDk4MDQzLTAuMDY1MzYyLTAuMjAyNjIxLTAuMTE5ODMtMC4zMDI4NDItMC4xODMwMTJhMTUuNzEwNzc0IDE1LjcxMDc3NCAwIDAgMC0xLjA3NDExMS0wLjY0MjcyNGMtMC4wNjUzNjItMC4wMzcwMzgtMC4xMzUwODEtMC4wNjMxODMtMC4yMDI2MjEtMC4wOTgwNDJhMTUuODc2MzU3IDE1Ljg3NjM1NyAwIDAgMC0xLjI0NjIzLTAuNTg4MjU2Yy0wLjAzOTIxNy0wLjAxNzQzLTAuMDgwNjEzLTAuMDI4MzIzLTAuMTIyMDA4LTAuMDQ1NzUzYTE2LjQ0NTAwNCAxNi40NDUwMDQgMCAwIDAtMS4zNzkxMzItMC40OTQ1N2MtMC4wNDc5MzItMC4wMTMwNzItMC4wOTgwNDMtMC4wMjE3ODctMC4xNDU5NzUtMC4wMzcwMzhhMTUuODEwOTk2IDE1LjgxMDk5NiAwIDAgMC0xLjM5ODc0LTAuMzUwNzc1Yy0wLjEzMDcyMy0wLjAyNjE0NS0wLjI2NTgwNC0wLjAzOTIxNy0wLjM5ODcwNy0wLjA2MTAwNC0wLjM5MjE3LTAuMDY3NTQtMC43ODQzNC0wLjEzNzI2LTEuMTg1MjI1LTAuMTc4NjU1YTE2LjIzODAyNiAxNi4yMzgwMjYgMCAwIDAtMS42MzE4NjQtMC4wODI3OTJIMTYuMzQwNDI2QTE2LjM0Njk2MiAxNi4zNDY5NjIgMCAwIDAgMCA3Ni4yNTUzMTl2ODA2LjEyNzY2YzAgNDUuMDUxNjQzIDM2LjY1MDQ4NSA4MS43MDIxMjggODEuNzAyMTI4IDgxLjcwMjEyN2g4NjAuNTk1NzQ0YzQ1LjA1MTY0MyAwIDgxLjcwMjEyOC0zNi42NTA0ODUgODEuNzAyMTI4LTgxLjcwMjEyN1YxNjMuNDA0MjU1YzAtOS4wMjY0NTEtNy4zMTM5NzQtMTYuMzQwNDI2LTE2LjM0MDQyNi0xNi4zNDA0MjV6IG0tMjk3LjM5NTc0NCA5NS44NjM4M1YxMTUuNzAzMjg1bDEyNy4yMjQzNzQgMTI3LjIyNDM3NUg3MTAuMjYzODN6Ii8+PHBhdGggZGF0YS1zcG0tYW5jaG9yLWlkPSJhMzEzeC5zZWFyY2hfaW5kZXguMC5pNC4yOWQ3M2E4MXpFcDlBYyIgZmlsbD0iIzA4Mjk0NyIgZD0iTTM4MS4yNzY1OTYgNzk0LjE0NDY4MUgxNDcuMDYzODNjLTkuMDI0MjcyIDAtMTYuMzQwNDI2IDcuMzEzOTc0LTE2LjM0MDQyNiAxNi4zNDA0MjVzNy4zMTYxNTMgMTYuMzQwNDI2IDE2LjM0MDQyNiAxNi4zNDA0MjZIMzgxLjI3NjU5NmM5LjAyNDI3MiAwIDE2LjM0MDQyNi03LjMxMzk3NCAxNi4zNDA0MjUtMTYuMzQwNDI2cy03LjMxNjE1My0xNi4zNDA0MjYtMTYuMzQwNDI1LTE2LjM0MDQyNXpNNzQ2LjIxMjc2NiA3OTQuMTQ0NjgxSDUxMmMtOS4wMjQyNzIgMC0xNi4zNDA0MjYgNy4zMTM5NzQtMTYuMzQwNDI2IDE2LjM0MDQyNXM3LjMxNjE1MyAxNi4zNDA0MjYgMTYuMzQwNDI2IDE2LjM0MDQyNmgyMzQuMjEyNzY2YzkuMDI2NDUxIDAgMTYuMzQwNDI2LTcuMzEzOTc0IDE2LjM0MDQyNS0xNi4zNDA0MjZzLTcuMzEzOTc0LTE2LjM0MDQyNi0xNi4zNDA0MjUtMTYuMzQwNDI1ek03NDYuMjEyNzY2IDY5Ni4xMDIxMjhINTEyYy05LjAyNDI3MiAwLTE2LjM0MDQyNiA3LjMxMzk3NC0xNi4zNDA0MjYgMTYuMzQwNDI1czcuMzE2MTUzIDE2LjM0MDQyNiAxNi4zNDA0MjYgMTYuMzQwNDI2aDIzNC4yMTI3NjZjOS4wMjY0NTEgMCAxNi4zNDA0MjYtNy4zMTM5NzQgMTYuMzQwNDI1LTE2LjM0MDQyNnMtNy4zMTM5NzQtMTYuMzQwNDI2LTE2LjM0MDQyNS0xNi4zNDA0MjV6TTc0Ni4yMTI3NjYgNTk4LjA1OTU3NEg1MTJjLTkuMDI0MjcyIDAtMTYuMzQwNDI2IDcuMzEzOTc0LTE2LjM0MDQyNiAxNi4zNDA0MjZzNy4zMTYxNTMgMTYuMzQwNDI2IDE2LjM0MDQyNiAxNi4zNDA0MjZoMjM0LjIxMjc2NmM5LjAyNjQ1MSAwIDE2LjM0MDQyNi03LjMxMzk3NCAxNi4zNDA0MjUtMTYuMzQwNDI2cy03LjMxMzk3NC0xNi4zNDA0MjYtMTYuMzQwNDI1LTE2LjM0MDQyNnpNMzgxLjI3NjU5NiA1MDAuMDE3MDIxSDE0Ny4wNjM4M0ExNi4zNDA0MjYgMTYuMzQwNDI2IDAgMCAwIDEzMC43MjM0MDQgNTE2LjM1NzQ0N3YxOTYuMDg1MTA2YTE2LjM0MDQyNiAxNi4zNDA0MjYgMCAwIDAgMTYuMzQwNDI2IDE2LjM0MDQyNkgzODEuMjc2NTk2YTE2LjM0MDQyNiAxNi4zNDA0MjYgMCAwIDAgMTYuMzQwNDI1LTE2LjM0MDQyNnYtODcuMTQ4OTM2YzAtOS4wMjY0NTEtNy4zMTYxNTMtMTYuMzQwNDI2LTE2LjM0MDQyNS0xNi4zNDA0MjZzLTE2LjM0MDQyNiA3LjMxMzk3NC0xNi4zNDA0MjYgMTYuMzQwNDI2djcwLjgwODUxMUgxNjMuNDA0MjU1di0xNjMuNDA0MjU2aDIwMS41MzE5MTVWNTU5LjkzMTkxNWMwIDkuMDI2NDUxIDcuMzE2MTUzIDE2LjM0MDQyNiAxNi4zNDA0MjYgMTYuMzQwNDI1czE2LjM0MDQyNi03LjMxMzk3NCAxNi4zNDA0MjUtMTYuMzQwNDI1di00My41NzQ0NjhhMTYuMzQwNDI2IDE2LjM0MDQyNiAwIDAgMC0xNi4zNDA0MjUtMTYuMzQwNDI2ek03NDYuMjEyNzY2IDUwMC4wMTcwMjFINTEyYy05LjAyNDI3MiAwLTE2LjM0MDQyNiA3LjMxMzk3NC0xNi4zNDA0MjYgMTYuMzQwNDI2czcuMzE2MTUzIDE2LjM0MDQyNiAxNi4zNDA0MjYgMTYuMzQwNDI1aDIzNC4yMTI3NjZjOS4wMjY0NTEgMCAxNi4zNDA0MjYtNy4zMTM5NzQgMTYuMzQwNDI1LTE2LjM0MDQyNXMtNy4zMTM5NzQtMTYuMzQwNDI2LTE2LjM0MDQyNS0xNi4zNDA0MjZ6TTc0Ni4yMTI3NjYgNDAxLjk3NDQ2OGgtNTk5LjE0ODkzNmMtOS4wMjQyNzIgMC0xNi4zNDA0MjYgNy4zMTM5NzQtMTYuMzQwNDI2IDE2LjM0MDQyNnM3LjMxNjE1MyAxNi4zNDA0MjYgMTYuMzQwNDI2IDE2LjM0MDQyNWg1OTkuMTQ4OTM2YzkuMDI2NDUxIDAgMTYuMzQwNDI2LTcuMzEzOTc0IDE2LjM0MDQyNS0xNi4zNDA0MjVzLTcuMzEzOTc0LTE2LjM0MDQyNi0xNi4zNDA0MjUtMTYuMzQwNDI2eiIvPjwvc3ZnPg==;" parent="Hc0L2odZ3vd23eVe25mG-45" vertex="1">
          <mxGeometry x="9.184615384615384" y="27.71653543307087" width="47.874015748031496" height="47.874015748031496" as="geometry" />
        </mxCell>
        <mxCell id="Hc0L2odZ3vd23eVe25mG-43" value="" style="shape=image;verticalLabelPosition=bottom;labelBackgroundColor=default;verticalAlign=top;aspect=fixed;imageAspect=0;image=data:image/svg+xml,PHN2ZyB4bWxuczp4bGluaz0iaHR0cDovL3d3dy53My5vcmcvMTk5OS94bGluayIgeG1sbnM9Imh0dHA6Ly93d3cudzMub3JnLzIwMDAvc3ZnIiBoZWlnaHQ9IjIwMCIgd2lkdGg9IjIwMCIgdmVyc2lvbj0iMS4xIiB2aWV3Qm94PSIwIDAgMTAyNCAxMDI0IiBjbGFzcz0iaWNvbiI+PHBhdGggZmlsbD0iI0ZGNkUxRCIgZD0iTTM2NC45MzYxNyA1NTkuOTMxOTE1di0yNy4yMzQwNDNIMTYzLjQwNDI1NXYxNjMuNDA0MjU2aDIwMS41MzE5MTVWNjI1LjI5MzYxN2ExNi4zNDA0MjYgMTYuMzQwNDI2IDAgMCAxIDE2LjM0MDQyNi0xNi4zNDA0MjZ2LTMyLjY4MDg1MWExNi4zNDA0MjYgMTYuMzQwNDI2IDAgMCAxLTE2LjM0MDQyNi0xNi4zNDA0MjV6Ii8+PHBhdGggZmlsbD0iI0ZGQ0M3NSIgZD0iTTcxMC4yNjM4MyAyNDIuOTI3NjZoMTI3LjIyNDM3NEw3MTAuMjYzODMgMTE1LjcwMzI4NXoiLz48cGF0aCBmaWxsPSIjRkZGRkZGIiBkPSJNOTQyLjI5Nzg3MiA4OTguNzIzNDA0aC02NS4zNjE3MDJhMTYuMzM4MjQ3IDE2LjMzODI0NyAwIDAgMS0xNi4zNDA0MjUtMTYuMzQwNDI1VjI3NS42MDg1MTFoLTE2Ni42NzIzNDFhMTYuMzM4MjQ3IDE2LjMzODI0NyAwIDAgMS0xNi4zNDA0MjUtMTYuMzQwNDI2VjkyLjU5NTc0NUgzMi42ODA4NTFWODgyLjM4Mjk3OWMwIDI3LjAyOTI0MyAyMS45ODk4NTUgNDkuMDIxMjc3IDQ5LjAyMTI3NyA0OS4wMjEyNzZoODYwLjU5NTc0NGMyNy4wMjkyNDMgMCA0OS4wMjEyNzctMjEuOTkyMDM0IDQ5LjAyMTI3Ny00OS4wMjEyNzZoLTMyLjY4MDg1MWMwIDkuMDI2NDUxLTcuMzEzOTc0IDE2LjM0MDQyNi0xNi4zNDA0MjYgMTYuMzQwNDI1ek0zMjIuMzUwODQzIDMwNy4yNzQwNzdsNTcuMTg3MTMxLTQzLjU3NDQ2OGExNi4zNDY5NjIgMTYuMzQ2OTYyIDAgMCAxIDE5LjgwNjc3NSAwbDQ3LjI4NzAxMyAzNi4wMjk1NDggNDcuMjkzNTQ5LTM2LjAyOTU0OGExNi4zNDI2MDQgMTYuMzQyNjA0IDAgMCAxIDE5LjgwNDU5NSAwbDU3LjE5NTg0NyA0My41NzQ0NjhhMTYuMzQwNDI2IDE2LjM0MDQyNiAwIDAgMS05LjkxNTM3IDI5LjMzODY4OSAxNi4yNTMyNzcgMTYuMjUzMjc3IDAgMCAxLTkuODg5MjI2LTMuMzQyMTYybC00Ny4yOTM1NDgtMzYuMDI5NTQ5LTQ3LjI5NTcyOCAzNi4wMjk1NDlhMTYuMzQyNjA0IDE2LjM0MjYwNCAwIDAgMS0xOS44MDQ1OTYgMGwtNDcuMjg0ODM0LTM2LjAyOTU0OS00Ny4yODA0NzcgMzYuMDI5NTQ5YTE2LjM0MDQyNiAxNi4zNDA0MjYgMCAxIDEtMTkuODExMTMxLTI1Ljk5NjUyN3pNMzgxLjI3NjU5NiA4MjYuODI1NTMySDE0Ny4wNjM4M2MtOS4wMjQyNzIgMC0xNi4zNDA0MjYtNy4zMTM5NzQtMTYuMzQwNDI2LTE2LjM0MDQyNnM3LjMxNjE1My0xNi4zNDA0MjYgMTYuMzQwNDI2LTE2LjM0MDQyNUgzODEuMjc2NTk2YzkuMDI0MjcyIDAgMTYuMzQwNDI2IDcuMzEzOTc0IDE2LjM0MDQyNSAxNi4zNDA0MjVzLTcuMzE2MTUzIDE2LjM0MDQyNi0xNi4zNDA0MjUgMTYuMzQwNDI2eiBtMTYuMzQwNDI1LTI2Ni44OTM2MTdhMTYuMzQwNDI2IDE2LjM0MDQyNiAwIDAgMS0xNi4zNDA0MjUgMTYuMzQwNDI1djMyLjY4MDg1MWExNi4zNDA0MjYgMTYuMzQwNDI2IDAgMCAxIDE2LjM0MDQyNSAxNi4zNDA0MjZ2ODcuMTQ4OTM2YTE2LjM0MDQyNiAxNi4zNDA0MjYgMCAwIDEtMTYuMzQwNDI1IDE2LjM0MDQyNkgxNDcuMDYzODNBMTYuMzQwNDI2IDE2LjM0MDQyNiAwIDAgMSAxMzAuNzIzNDA0IDcxMi40NDI1NTN2LTE5Ni4wODUxMDZhMTYuMzQwNDI2IDE2LjM0MDQyNiAwIDAgMSAxNi4zNDA0MjYtMTYuMzQwNDI2SDM4MS4yNzY1OTZhMTYuMzQwNDI2IDE2LjM0MDQyNiAwIDAgMSAxNi4zNDA0MjUgMTYuMzQwNDI2djQzLjU3NDQ2OHogbTM0OC41OTU3NDUgMjY2Ljg5MzYxN0g1MTJjLTkuMDI0MjcyIDAtMTYuMzQwNDI2LTcuMzEzOTc0LTE2LjM0MDQyNi0xNi4zNDA0MjZzNy4zMTYxNTMtMTYuMzQwNDI2IDE2LjM0MDQyNi0xNi4zNDA0MjVoMjM0LjIxMjc2NmM5LjAyNjQ1MSAwIDE2LjM0MDQyNiA3LjMxMzk3NCAxNi4zNDA0MjUgMTYuMzQwNDI1cy03LjMxMzk3NCAxNi4zNDA0MjYtMTYuMzQwNDI1IDE2LjM0MDQyNnogbTAtOTguMDQyNTUzSDUxMmMtOS4wMjQyNzIgMC0xNi4zNDA0MjYtNy4zMTM5NzQtMTYuMzQwNDI2LTE2LjM0MDQyNnM3LjMxNjE1My0xNi4zNDA0MjYgMTYuMzQwNDI2LTE2LjM0MDQyNWgyMzQuMjEyNzY2YzkuMDI2NDUxIDAgMTYuMzQwNDI2IDcuMzEzOTc0IDE2LjM0MDQyNSAxNi4zNDA0MjVzLTcuMzEzOTc0IDE2LjM0MDQyNi0xNi4zNDA0MjUgMTYuMzQwNDI2eiBtMC05OC4wNDI1NTNINTEyYy05LjAyNDI3MiAwLTE2LjM0MDQyNi03LjMxMzk3NC0xNi4zNDA0MjYtMTYuMzQwNDI2czcuMzE2MTUzLTE2LjM0MDQyNiAxNi4zNDA0MjYtMTYuMzQwNDI2aDIzNC4yMTI3NjZjOS4wMjY0NTEgMCAxNi4zNDA0MjYgNy4zMTM5NzQgMTYuMzQwNDI1IDE2LjM0MDQyNnMtNy4zMTM5NzQgMTYuMzQwNDI2LTE2LjM0MDQyNSAxNi4zNDA0MjZ6IG0wLTk4LjA0MjU1NEg1MTJjLTkuMDI0MjcyIDAtMTYuMzQwNDI2LTcuMzEzOTc0LTE2LjM0MDQyNi0xNi4zNDA0MjVzNy4zMTYxNTMtMTYuMzQwNDI2IDE2LjM0MDQyNi0xNi4zNDA0MjZoMjM0LjIxMjc2NmM5LjAyNjQ1MSAwIDE2LjM0MDQyNiA3LjMxMzk3NCAxNi4zNDA0MjUgMTYuMzQwNDI2cy03LjMxMzk3NCAxNi4zNDA0MjYtMTYuMzQwNDI1IDE2LjM0MDQyNXogbTAtOTguMDQyNTUzaC01OTkuMTQ4OTM2Yy05LjAyNDI3MiAwLTE2LjM0MDQyNi03LjMxMzk3NC0xNi4zNDA0MjYtMTYuMzQwNDI1czcuMzE2MTUzLTE2LjM0MDQyNiAxNi4zNDA0MjYtMTYuMzQwNDI2aDU5OS4xNDg5MzZjOS4wMjY0NTEgMCAxNi4zNDA0MjYgNy4zMTM5NzQgMTYuMzQwNDI1IDE2LjM0MDQyNnMtNy4zMTM5NzQgMTYuMzQwNDI2LTE2LjM0MDQyNSAxNi4zNDA0MjV6Ii8+PHBhdGggZmlsbD0iI0YyRUJEOSIgZD0iTTg4OC43MzE3NzkgMjQ3Ljk3Nzk0YzAuMjg1NDEzIDAuMjk4NDg1IDAuNTY4NjQ3IDAuNTk2OTcgMC44MzAwOTMgMC45MTcyNDMgMC4wOTM2ODUgMC4xMTMyOTQgMC4xNzQyOTggMC4yMzc0ODEgMC4yNjM2MjYgMC4zNTI5NTMgMC4yMzc0ODEgMC4zMDUwMjEgMC40NzQ5NjIgMC42MTIyMjEgMC42OTA2NTUgMC45MzQ2NzMgMC4wNjUzNjIgMC4wOTgwNDMgMC4xMTk4MyAwLjIwMjYyMSAwLjE4MzAxMyAwLjMwMDY2MyAwLjIyNDQwOSAwLjM1MDc3NCAwLjQ0NDQ2IDAuNzA1OTA2IDAuNjQyNzIzIDEuMDc0MTExIDAuMDM0ODYgMC4wNjUzNjIgMC4wNjMxODMgMC4xMzcyNiAwLjA5ODA0MyAwLjIwMjYyMSAwLjIxMTMzNiAwLjQwNzQyMSAwLjQxMTc3OSAwLjgxOTIgMC41ODgyNTUgMS4yNDYyMyAwLjAxNzQzIDAuMDQxMzk2IDAuMDI4MzIzIDAuMDgyNzkxIDAuMDQzNTc1IDAuMTIyMDA5IDAuMTgzMDEzIDAuNDUwOTk2IDAuMzUwNzc0IDAuOTA4NTI4IDAuNDk0NTcgMS4zNzkxMzEgMC4wMTUyNTEgMC4wNDc5MzIgMC4wMjM5NjYgMC4wOTgwNDMgMC4wMzcwMzggMC4xNDU5NzUgMC4xMzUwODEgMC40NTc1MzIgMC4yNTcwODkgMC45MjE2IDAuMzUwNzc1IDEuMzk4NzQgMC4wMjYxNDUgMC4xMzA3MjMgMC4wMzcwMzggMC4yNjU4MDQgMC4wNjEwMDQgMC4zOTg3MDcgMC4wNjc1NCAwLjM5MjE3IDAuMTM3MjYgMC43ODQzNCAwLjE3NjQ3NyAxLjE4NTIyNSAwLjA1NDQ2OCAwLjU0MDMyMyAwLjA4Mjc5MSAxLjA4NTAwNCAwLjA4Mjc5MSAxLjYzMTg2NHY2MDYuNzc0NDY4aDQ5LjAyMTI3N2M5LjAyNjQ1MSAwIDE2LjM0MDQyNiA3LjMxMzk3NCAxNi4zNDA0MjUgMTYuMzQwNDI2aDMyLjY4MDg1MVYxNzkuNzQ0NjgxaC0xMTcuODA3OTMyYTE2LjMzODI0NyAxNi4zMzgyNDcgMCAwIDEtMTYuMzQwNDI1LTE2LjM0MDQyNmgtNTIuOTg2NTUzbDg0LjMwNzg4IDg0LjMwNzg4MWMwLjA4NzE0OSAwLjA4NDk3IDAuMTU5MDQ3IDAuMTc4NjU1IDAuMjQxODM5IDAuMjY1ODA0eiIvPjxwYXRoIGZpbGw9IiMwODI5NDciIGQ9Ik0zNDIuMTU5Nzk2IDMzMy4yNzA2MDRsNDcuMjgwNDc2LTM2LjAyOTU0OSA0Ny4yODQ4MzQgMzYuMDI5NTQ5YTE2LjM0MjYwNCAxNi4zNDI2MDQgMCAwIDAgMTkuODA0NTk2IDBsNDcuMjk1NzI4LTM2LjAyOTU0OSA0Ny4yOTM1NDkgMzYuMDI5NTQ5YTE2LjI1MzI3NyAxNi4yNTMyNzcgMCAwIDAgOS44ODkyMjUgMy4zNDIxNjIgMTYuMzQwNDI2IDE2LjM0MDQyNiAwIDAgMCA5LjkxNTM3LTI5LjMzODY4OWwtNTcuMTk1ODQ2LTQzLjU3NDQ2OGExNi4zNDI2MDQgMTYuMzQyNjA0IDAgMCAwLTE5LjgwNDU5NiAwbC00Ny4yOTM1NDkgMzYuMDI5NTQ4LTQ3LjI4NzAxMy0zNi4wMjk1NDhhMTYuMzQ2OTYyIDE2LjM0Njk2MiAwIDAgMC0xOS44MDY3NzQgMGwtNTcuMTg3MTMyIDQzLjU3NDQ2OGExNi4zNDI2MDQgMTYuMzQyNjA0IDAgMCAwIDE5LjgxMTEzMiAyNS45OTY1Mjd6Ii8+PHBhdGggZmlsbD0iIzA4Mjk0NyIgZD0iTTEwMDcuNjU5NTc0IDE0Ny4wNjM4M2gtMTM0LjE0ODM1N2MtOS4wMjY0NTEgMC0xNi4zNDA0MjYgNy4zMTM5NzQtMTYuMzQwNDI2IDE2LjM0MDQyNXM3LjMxMzk3NCAxNi4zNDA0MjYgMTYuMzQwNDI2IDE2LjM0MDQyNkg5OTEuMzE5MTQ5Vjg4Mi4zODI5NzljMCAyNy4wMjkyNDMtMjEuOTkyMDM0IDQ5LjAyMTI3Ny00OS4wMjEyNzcgNDkuMDIxMjc2aC04NjAuNTk1NzQ0QzU0LjY3MDcwNiA5MzEuNDA0MjU1IDMyLjY4MDg1MSA5MDkuNDEyMjIxIDMyLjY4MDg1MSA4ODIuMzgyOTc5VjkyLjU5NTc0NWg2NDQuOTAyMTI4VjI1OS4yNjgwODVjMCA5LjAyNjQ1MSA3LjMxMzk3NCAxNi4zNDA0MjYgMTYuMzQwNDI1IDE2LjM0MDQyNkg4NjAuNTk1NzQ1Vjg4Mi4zODI5NzljMCA5LjAyNjQ1MSA3LjMxMzk3NCAxNi4zNDA0MjYgMTYuMzQwNDI1IDE2LjM0MDQyNWg2NS4zNjE3MDJjOS4wMjY0NTEgMCAxNi4zNDA0MjYtNy4zMTM5NzQgMTYuMzQwNDI2LTE2LjM0MDQyNXMtNy4zMTM5NzQtMTYuMzQwNDI2LTE2LjM0MDQyNi0xNi4zNDA0MjZIODkzLjI3NjU5NlYyNTkuMjY4MDg1YzAtMC41NDY4Ni0wLjAyODMyMy0xLjA5MTU0LTAuMDgyNzkyLTEuNjMxODY0LTAuMDM5MjE3LTAuNDAwODg1LTAuMTA4OTM2LTAuNzkzMDU1LTAuMTc2NDc2LTEuMTg1MjI1LTAuMDIzOTY2LTAuMTMyOTAyLTAuMDM0ODYtMC4yNjc5ODMtMC4wNjEwMDUtMC4zOTg3MDdhMTUuODEwOTk2IDE1LjgxMDk5NiAwIDAgMC0wLjM1MDc3NC0xLjM5ODc0Yy0wLjAxMzA3Mi0wLjA0NzkzMi0wLjAyMTc4Ny0wLjA5ODA0My0wLjAzNzAzOC0wLjE0NTk3NWExNi40NDUwMDQgMTYuNDQ1MDA0IDAgMCAwLTAuNDk0NTcxLTEuMzc5MTMxbC0wLjA0MzU3NC0wLjEyMjAwOWExNi4yNTMyNzcgMTYuMjUzMjc3IDAgMCAwLTAuNTg4MjU1LTEuMjQ2MjNjLTAuMDM0ODYtMC4wNjUzNjItMC4wNjEwMDQtMC4xMzcyNi0wLjA5ODA0My0wLjIwMjYyMWExNi42NDU0NDcgMTYuNjQ1NDQ3IDAgMCAwLTAuNjQyNzIzLTEuMDc0MTExYy0wLjA2MzE4My0wLjA5ODA0My0wLjExNzY1MS0wLjIwMjYyMS0wLjE4MzAxMy0wLjMwMDY2M2ExNi4xNTMwNTUgMTYuMTUzMDU1IDAgMCAwLTAuNjkwNjU1LTAuOTM0NjczYy0wLjA5MTUwNi0wLjExNTQ3Mi0wLjE2OTk0LTAuMjM5NjYtMC4yNjM2MjYtMC4zNTI5NTNhMTYuNDk5NDcyIDE2LjQ5OTQ3MiAwIDAgMC0wLjgzMDA5NC0wLjkxNzI0M2MtMC4wODI3OTEtMC4wODcxNDktMC4xNTQ2ODktMC4xODA4MzQtMC4yMzk2NTktMC4yNjU4MDRsLTE4My4wMTI3NjYtMTgzLjAxMjc2NmMtMC4wODQ5Ny0wLjA4NDk3LTAuMTc4NjU1LTAuMTU2ODY4LTAuMjY1ODA0LTAuMjM5NjU5YTE2LjQ5OTQ3MiAxNi40OTk0NzIgMCAwIDAtMC45MTcyNDMtMC44MzAwOTRjLTAuMTEzMjk0LTAuMDkzNjg1LTAuMjM3NDgxLTAuMTc0Mjk4LTAuMzUyOTUzLTAuMjY1ODA0YTE2Ljg4OTQ2NCAxNi44ODk0NjQgMCAwIDAtMC45MzI0OTQtMC42OTA2NTZjLTAuMDk4MDQzLTAuMDY1MzYyLTAuMjAyNjIxLTAuMTE5ODMtMC4zMDI4NDItMC4xODMwMTJhMTUuNzEwNzc0IDE1LjcxMDc3NCAwIDAgMC0xLjA3NDExMS0wLjY0MjcyNGMtMC4wNjUzNjItMC4wMzcwMzgtMC4xMzUwODEtMC4wNjMxODMtMC4yMDI2MjEtMC4wOTgwNDJhMTUuODc2MzU3IDE1Ljg3NjM1NyAwIDAgMC0xLjI0NjIzLTAuNTg4MjU2Yy0wLjAzOTIxNy0wLjAxNzQzLTAuMDgwNjEzLTAuMDI4MzIzLTAuMTIyMDA4LTAuMDQ1NzUzYTE2LjQ0NTAwNCAxNi40NDUwMDQgMCAwIDAtMS4zNzkxMzItMC40OTQ1N2MtMC4wNDc5MzItMC4wMTMwNzItMC4wOTgwNDMtMC4wMjE3ODctMC4xNDU5NzUtMC4wMzcwMzhhMTUuODEwOTk2IDE1LjgxMDk5NiAwIDAgMC0xLjM5ODc0LTAuMzUwNzc1Yy0wLjEzMDcyMy0wLjAyNjE0NS0wLjI2NTgwNC0wLjAzOTIxNy0wLjM5ODcwNy0wLjA2MTAwNC0wLjM5MjE3LTAuMDY3NTQtMC43ODQzNC0wLjEzNzI2LTEuMTg1MjI1LTAuMTc4NjU1YTE2LjIzODAyNiAxNi4yMzgwMjYgMCAwIDAtMS42MzE4NjQtMC4wODI3OTJIMTYuMzQwNDI2QTE2LjM0Njk2MiAxNi4zNDY5NjIgMCAwIDAgMCA3Ni4yNTUzMTl2ODA2LjEyNzY2YzAgNDUuMDUxNjQzIDM2LjY1MDQ4NSA4MS43MDIxMjggODEuNzAyMTI4IDgxLjcwMjEyN2g4NjAuNTk1NzQ0YzQ1LjA1MTY0MyAwIDgxLjcwMjEyOC0zNi42NTA0ODUgODEuNzAyMTI4LTgxLjcwMjEyN1YxNjMuNDA0MjU1YzAtOS4wMjY0NTEtNy4zMTM5NzQtMTYuMzQwNDI2LTE2LjM0MDQyNi0xNi4zNDA0MjV6IG0tMjk3LjM5NTc0NCA5NS44NjM4M1YxMTUuNzAzMjg1bDEyNy4yMjQzNzQgMTI3LjIyNDM3NUg3MTAuMjYzODN6Ii8+PHBhdGggZGF0YS1zcG0tYW5jaG9yLWlkPSJhMzEzeC5zZWFyY2hfaW5kZXguMC5pNC4yOWQ3M2E4MXpFcDlBYyIgZmlsbD0iIzA4Mjk0NyIgZD0iTTM4MS4yNzY1OTYgNzk0LjE0NDY4MUgxNDcuMDYzODNjLTkuMDI0MjcyIDAtMTYuMzQwNDI2IDcuMzEzOTc0LTE2LjM0MDQyNiAxNi4zNDA0MjVzNy4zMTYxNTMgMTYuMzQwNDI2IDE2LjM0MDQyNiAxNi4zNDA0MjZIMzgxLjI3NjU5NmM5LjAyNDI3MiAwIDE2LjM0MDQyNi03LjMxMzk3NCAxNi4zNDA0MjUtMTYuMzQwNDI2cy03LjMxNjE1My0xNi4zNDA0MjYtMTYuMzQwNDI1LTE2LjM0MDQyNXpNNzQ2LjIxMjc2NiA3OTQuMTQ0NjgxSDUxMmMtOS4wMjQyNzIgMC0xNi4zNDA0MjYgNy4zMTM5NzQtMTYuMzQwNDI2IDE2LjM0MDQyNXM3LjMxNjE1MyAxNi4zNDA0MjYgMTYuMzQwNDI2IDE2LjM0MDQyNmgyMzQuMjEyNzY2YzkuMDI2NDUxIDAgMTYuMzQwNDI2LTcuMzEzOTc0IDE2LjM0MDQyNS0xNi4zNDA0MjZzLTcuMzEzOTc0LTE2LjM0MDQyNi0xNi4zNDA0MjUtMTYuMzQwNDI1ek03NDYuMjEyNzY2IDY5Ni4xMDIxMjhINTEyYy05LjAyNDI3MiAwLTE2LjM0MDQyNiA3LjMxMzk3NC0xNi4zNDA0MjYgMTYuMzQwNDI1czcuMzE2MTUzIDE2LjM0MDQyNiAxNi4zNDA0MjYgMTYuMzQwNDI2aDIzNC4yMTI3NjZjOS4wMjY0NTEgMCAxNi4zNDA0MjYtNy4zMTM5NzQgMTYuMzQwNDI1LTE2LjM0MDQyNnMtNy4zMTM5NzQtMTYuMzQwNDI2LTE2LjM0MDQyNS0xNi4zNDA0MjV6TTc0Ni4yMTI3NjYgNTk4LjA1OTU3NEg1MTJjLTkuMDI0MjcyIDAtMTYuMzQwNDI2IDcuMzEzOTc0LTE2LjM0MDQyNiAxNi4zNDA0MjZzNy4zMTYxNTMgMTYuMzQwNDI2IDE2LjM0MDQyNiAxNi4zNDA0MjZoMjM0LjIxMjc2NmM5LjAyNjQ1MSAwIDE2LjM0MDQyNi03LjMxMzk3NCAxNi4zNDA0MjUtMTYuMzQwNDI2cy03LjMxMzk3NC0xNi4zNDA0MjYtMTYuMzQwNDI1LTE2LjM0MDQyNnpNMzgxLjI3NjU5NiA1MDAuMDE3MDIxSDE0Ny4wNjM4M0ExNi4zNDA0MjYgMTYuMzQwNDI2IDAgMCAwIDEzMC43MjM0MDQgNTE2LjM1NzQ0N3YxOTYuMDg1MTA2YTE2LjM0MDQyNiAxNi4zNDA0MjYgMCAwIDAgMTYuMzQwNDI2IDE2LjM0MDQyNkgzODEuMjc2NTk2YTE2LjM0MDQyNiAxNi4zNDA0MjYgMCAwIDAgMTYuMzQwNDI1LTE2LjM0MDQyNnYtODcuMTQ4OTM2YzAtOS4wMjY0NTEtNy4zMTYxNTMtMTYuMzQwNDI2LTE2LjM0MDQyNS0xNi4zNDA0MjZzLTE2LjM0MDQyNiA3LjMxMzk3NC0xNi4zNDA0MjYgMTYuMzQwNDI2djcwLjgwODUxMUgxNjMuNDA0MjU1di0xNjMuNDA0MjU2aDIwMS41MzE5MTVWNTU5LjkzMTkxNWMwIDkuMDI2NDUxIDcuMzE2MTUzIDE2LjM0MDQyNiAxNi4zNDA0MjYgMTYuMzQwNDI1czE2LjM0MDQyNi03LjMxMzk3NCAxNi4zNDA0MjUtMTYuMzQwNDI1di00My41NzQ0NjhhMTYuMzQwNDI2IDE2LjM0MDQyNiAwIDAgMC0xNi4zNDA0MjUtMTYuMzQwNDI2ek03NDYuMjEyNzY2IDUwMC4wMTcwMjFINTEyYy05LjAyNDI3MiAwLTE2LjM0MDQyNiA3LjMxMzk3NC0xNi4zNDA0MjYgMTYuMzQwNDI2czcuMzE2MTUzIDE2LjM0MDQyNiAxNi4zNDA0MjYgMTYuMzQwNDI1aDIzNC4yMTI3NjZjOS4wMjY0NTEgMCAxNi4zNDA0MjYtNy4zMTM5NzQgMTYuMzQwNDI1LTE2LjM0MDQyNXMtNy4zMTM5NzQtMTYuMzQwNDI2LTE2LjM0MDQyNS0xNi4zNDA0MjZ6TTc0Ni4yMTI3NjYgNDAxLjk3NDQ2OGgtNTk5LjE0ODkzNmMtOS4wMjQyNzIgMC0xNi4zNDA0MjYgNy4zMTM5NzQtMTYuMzQwNDI2IDE2LjM0MDQyNnM3LjMxNjE1MyAxNi4zNDA0MjYgMTYuMzQwNDI2IDE2LjM0MDQyNWg1OTkuMTQ4OTM2YzkuMDI2NDUxIDAgMTYuMzQwNDI2LTcuMzEzOTc0IDE2LjM0MDQyNS0xNi4zNDA0MjVzLTcuMzEzOTc0LTE2LjM0MDQyNi0xNi4zNDA0MjUtMTYuMzQwNDI2eiIvPjwvc3ZnPg==;" parent="Hc0L2odZ3vd23eVe25mG-45" vertex="1">
          <mxGeometry x="71.18076923076923" y="27.71653543307087" width="47.874015748031496" height="47.874015748031496" as="geometry" />
        </mxCell>
        <mxCell id="Hc0L2odZ3vd23eVe25mG-44" value="" style="shape=image;verticalLabelPosition=bottom;labelBackgroundColor=default;verticalAlign=top;aspect=fixed;imageAspect=0;image=data:image/svg+xml,PHN2ZyB4bWxuczp4bGluaz0iaHR0cDovL3d3dy53My5vcmcvMTk5OS94bGluayIgeG1sbnM9Imh0dHA6Ly93d3cudzMub3JnLzIwMDAvc3ZnIiBoZWlnaHQ9IjIwMCIgd2lkdGg9IjIwMCIgdmVyc2lvbj0iMS4xIiB2aWV3Qm94PSIwIDAgMTAyNCAxMDI0IiBjbGFzcz0iaWNvbiI+PHBhdGggZmlsbD0iI0ZGNkUxRCIgZD0iTTM2NC45MzYxNyA1NTkuOTMxOTE1di0yNy4yMzQwNDNIMTYzLjQwNDI1NXYxNjMuNDA0MjU2aDIwMS41MzE5MTVWNjI1LjI5MzYxN2ExNi4zNDA0MjYgMTYuMzQwNDI2IDAgMCAxIDE2LjM0MDQyNi0xNi4zNDA0MjZ2LTMyLjY4MDg1MWExNi4zNDA0MjYgMTYuMzQwNDI2IDAgMCAxLTE2LjM0MDQyNi0xNi4zNDA0MjV6Ii8+PHBhdGggZmlsbD0iI0ZGQ0M3NSIgZD0iTTcxMC4yNjM4MyAyNDIuOTI3NjZoMTI3LjIyNDM3NEw3MTAuMjYzODMgMTE1LjcwMzI4NXoiLz48cGF0aCBmaWxsPSIjRkZGRkZGIiBkPSJNOTQyLjI5Nzg3MiA4OTguNzIzNDA0aC02NS4zNjE3MDJhMTYuMzM4MjQ3IDE2LjMzODI0NyAwIDAgMS0xNi4zNDA0MjUtMTYuMzQwNDI1VjI3NS42MDg1MTFoLTE2Ni42NzIzNDFhMTYuMzM4MjQ3IDE2LjMzODI0NyAwIDAgMS0xNi4zNDA0MjUtMTYuMzQwNDI2VjkyLjU5NTc0NUgzMi42ODA4NTFWODgyLjM4Mjk3OWMwIDI3LjAyOTI0MyAyMS45ODk4NTUgNDkuMDIxMjc3IDQ5LjAyMTI3NyA0OS4wMjEyNzZoODYwLjU5NTc0NGMyNy4wMjkyNDMgMCA0OS4wMjEyNzctMjEuOTkyMDM0IDQ5LjAyMTI3Ny00OS4wMjEyNzZoLTMyLjY4MDg1MWMwIDkuMDI2NDUxLTcuMzEzOTc0IDE2LjM0MDQyNi0xNi4zNDA0MjYgMTYuMzQwNDI1ek0zMjIuMzUwODQzIDMwNy4yNzQwNzdsNTcuMTg3MTMxLTQzLjU3NDQ2OGExNi4zNDY5NjIgMTYuMzQ2OTYyIDAgMCAxIDE5LjgwNjc3NSAwbDQ3LjI4NzAxMyAzNi4wMjk1NDggNDcuMjkzNTQ5LTM2LjAyOTU0OGExNi4zNDI2MDQgMTYuMzQyNjA0IDAgMCAxIDE5LjgwNDU5NSAwbDU3LjE5NTg0NyA0My41NzQ0NjhhMTYuMzQwNDI2IDE2LjM0MDQyNiAwIDAgMS05LjkxNTM3IDI5LjMzODY4OSAxNi4yNTMyNzcgMTYuMjUzMjc3IDAgMCAxLTkuODg5MjI2LTMuMzQyMTYybC00Ny4yOTM1NDgtMzYuMDI5NTQ5LTQ3LjI5NTcyOCAzNi4wMjk1NDlhMTYuMzQyNjA0IDE2LjM0MjYwNCAwIDAgMS0xOS44MDQ1OTYgMGwtNDcuMjg0ODM0LTM2LjAyOTU0OS00Ny4yODA0NzcgMzYuMDI5NTQ5YTE2LjM0MDQyNiAxNi4zNDA0MjYgMCAxIDEtMTkuODExMTMxLTI1Ljk5NjUyN3pNMzgxLjI3NjU5NiA4MjYuODI1NTMySDE0Ny4wNjM4M2MtOS4wMjQyNzIgMC0xNi4zNDA0MjYtNy4zMTM5NzQtMTYuMzQwNDI2LTE2LjM0MDQyNnM3LjMxNjE1My0xNi4zNDA0MjYgMTYuMzQwNDI2LTE2LjM0MDQyNUgzODEuMjc2NTk2YzkuMDI0MjcyIDAgMTYuMzQwNDI2IDcuMzEzOTc0IDE2LjM0MDQyNSAxNi4zNDA0MjVzLTcuMzE2MTUzIDE2LjM0MDQyNi0xNi4zNDA0MjUgMTYuMzQwNDI2eiBtMTYuMzQwNDI1LTI2Ni44OTM2MTdhMTYuMzQwNDI2IDE2LjM0MDQyNiAwIDAgMS0xNi4zNDA0MjUgMTYuMzQwNDI1djMyLjY4MDg1MWExNi4zNDA0MjYgMTYuMzQwNDI2IDAgMCAxIDE2LjM0MDQyNSAxNi4zNDA0MjZ2ODcuMTQ4OTM2YTE2LjM0MDQyNiAxNi4zNDA0MjYgMCAwIDEtMTYuMzQwNDI1IDE2LjM0MDQyNkgxNDcuMDYzODNBMTYuMzQwNDI2IDE2LjM0MDQyNiAwIDAgMSAxMzAuNzIzNDA0IDcxMi40NDI1NTN2LTE5Ni4wODUxMDZhMTYuMzQwNDI2IDE2LjM0MDQyNiAwIDAgMSAxNi4zNDA0MjYtMTYuMzQwNDI2SDM4MS4yNzY1OTZhMTYuMzQwNDI2IDE2LjM0MDQyNiAwIDAgMSAxNi4zNDA0MjUgMTYuMzQwNDI2djQzLjU3NDQ2OHogbTM0OC41OTU3NDUgMjY2Ljg5MzYxN0g1MTJjLTkuMDI0MjcyIDAtMTYuMzQwNDI2LTcuMzEzOTc0LTE2LjM0MDQyNi0xNi4zNDA0MjZzNy4zMTYxNTMtMTYuMzQwNDI2IDE2LjM0MDQyNi0xNi4zNDA0MjVoMjM0LjIxMjc2NmM5LjAyNjQ1MSAwIDE2LjM0MDQyNiA3LjMxMzk3NCAxNi4zNDA0MjUgMTYuMzQwNDI1cy03LjMxMzk3NCAxNi4zNDA0MjYtMTYuMzQwNDI1IDE2LjM0MDQyNnogbTAtOTguMDQyNTUzSDUxMmMtOS4wMjQyNzIgMC0xNi4zNDA0MjYtNy4zMTM5NzQtMTYuMzQwNDI2LTE2LjM0MDQyNnM3LjMxNjE1My0xNi4zNDA0MjYgMTYuMzQwNDI2LTE2LjM0MDQyNWgyMzQuMjEyNzY2YzkuMDI2NDUxIDAgMTYuMzQwNDI2IDcuMzEzOTc0IDE2LjM0MDQyNSAxNi4zNDA0MjVzLTcuMzEzOTc0IDE2LjM0MDQyNi0xNi4zNDA0MjUgMTYuMzQwNDI2eiBtMC05OC4wNDI1NTNINTEyYy05LjAyNDI3MiAwLTE2LjM0MDQyNi03LjMxMzk3NC0xNi4zNDA0MjYtMTYuMzQwNDI2czcuMzE2MTUzLTE2LjM0MDQyNiAxNi4zNDA0MjYtMTYuMzQwNDI2aDIzNC4yMTI3NjZjOS4wMjY0NTEgMCAxNi4zNDA0MjYgNy4zMTM5NzQgMTYuMzQwNDI1IDE2LjM0MDQyNnMtNy4zMTM5NzQgMTYuMzQwNDI2LTE2LjM0MDQyNSAxNi4zNDA0MjZ6IG0wLTk4LjA0MjU1NEg1MTJjLTkuMDI0MjcyIDAtMTYuMzQwNDI2LTcuMzEzOTc0LTE2LjM0MDQyNi0xNi4zNDA0MjVzNy4zMTYxNTMtMTYuMzQwNDI2IDE2LjM0MDQyNi0xNi4zNDA0MjZoMjM0LjIxMjc2NmM5LjAyNjQ1MSAwIDE2LjM0MDQyNiA3LjMxMzk3NCAxNi4zNDA0MjUgMTYuMzQwNDI2cy03LjMxMzk3NCAxNi4zNDA0MjYtMTYuMzQwNDI1IDE2LjM0MDQyNXogbTAtOTguMDQyNTUzaC01OTkuMTQ4OTM2Yy05LjAyNDI3MiAwLTE2LjM0MDQyNi03LjMxMzk3NC0xNi4zNDA0MjYtMTYuMzQwNDI1czcuMzE2MTUzLTE2LjM0MDQyNiAxNi4zNDA0MjYtMTYuMzQwNDI2aDU5OS4xNDg5MzZjOS4wMjY0NTEgMCAxNi4zNDA0MjYgNy4zMTM5NzQgMTYuMzQwNDI1IDE2LjM0MDQyNnMtNy4zMTM5NzQgMTYuMzQwNDI2LTE2LjM0MDQyNSAxNi4zNDA0MjV6Ii8+PHBhdGggZmlsbD0iI0YyRUJEOSIgZD0iTTg4OC43MzE3NzkgMjQ3Ljk3Nzk0YzAuMjg1NDEzIDAuMjk4NDg1IDAuNTY4NjQ3IDAuNTk2OTcgMC44MzAwOTMgMC45MTcyNDMgMC4wOTM2ODUgMC4xMTMyOTQgMC4xNzQyOTggMC4yMzc0ODEgMC4yNjM2MjYgMC4zNTI5NTMgMC4yMzc0ODEgMC4zMDUwMjEgMC40NzQ5NjIgMC42MTIyMjEgMC42OTA2NTUgMC45MzQ2NzMgMC4wNjUzNjIgMC4wOTgwNDMgMC4xMTk4MyAwLjIwMjYyMSAwLjE4MzAxMyAwLjMwMDY2MyAwLjIyNDQwOSAwLjM1MDc3NCAwLjQ0NDQ2IDAuNzA1OTA2IDAuNjQyNzIzIDEuMDc0MTExIDAuMDM0ODYgMC4wNjUzNjIgMC4wNjMxODMgMC4xMzcyNiAwLjA5ODA0MyAwLjIwMjYyMSAwLjIxMTMzNiAwLjQwNzQyMSAwLjQxMTc3OSAwLjgxOTIgMC41ODgyNTUgMS4yNDYyMyAwLjAxNzQzIDAuMDQxMzk2IDAuMDI4MzIzIDAuMDgyNzkxIDAuMDQzNTc1IDAuMTIyMDA5IDAuMTgzMDEzIDAuNDUwOTk2IDAuMzUwNzc0IDAuOTA4NTI4IDAuNDk0NTcgMS4zNzkxMzEgMC4wMTUyNTEgMC4wNDc5MzIgMC4wMjM5NjYgMC4wOTgwNDMgMC4wMzcwMzggMC4xNDU5NzUgMC4xMzUwODEgMC40NTc1MzIgMC4yNTcwODkgMC45MjE2IDAuMzUwNzc1IDEuMzk4NzQgMC4wMjYxNDUgMC4xMzA3MjMgMC4wMzcwMzggMC4yNjU4MDQgMC4wNjEwMDQgMC4zOTg3MDcgMC4wNjc1NCAwLjM5MjE3IDAuMTM3MjYgMC43ODQzNCAwLjE3NjQ3NyAxLjE4NTIyNSAwLjA1NDQ2OCAwLjU0MDMyMyAwLjA4Mjc5MSAxLjA4NTAwNCAwLjA4Mjc5MSAxLjYzMTg2NHY2MDYuNzc0NDY4aDQ5LjAyMTI3N2M5LjAyNjQ1MSAwIDE2LjM0MDQyNiA3LjMxMzk3NCAxNi4zNDA0MjUgMTYuMzQwNDI2aDMyLjY4MDg1MVYxNzkuNzQ0NjgxaC0xMTcuODA3OTMyYTE2LjMzODI0NyAxNi4zMzgyNDcgMCAwIDEtMTYuMzQwNDI1LTE2LjM0MDQyNmgtNTIuOTg2NTUzbDg0LjMwNzg4IDg0LjMwNzg4MWMwLjA4NzE0OSAwLjA4NDk3IDAuMTU5MDQ3IDAuMTc4NjU1IDAuMjQxODM5IDAuMjY1ODA0eiIvPjxwYXRoIGZpbGw9IiMwODI5NDciIGQ9Ik0zNDIuMTU5Nzk2IDMzMy4yNzA2MDRsNDcuMjgwNDc2LTM2LjAyOTU0OSA0Ny4yODQ4MzQgMzYuMDI5NTQ5YTE2LjM0MjYwNCAxNi4zNDI2MDQgMCAwIDAgMTkuODA0NTk2IDBsNDcuMjk1NzI4LTM2LjAyOTU0OSA0Ny4yOTM1NDkgMzYuMDI5NTQ5YTE2LjI1MzI3NyAxNi4yNTMyNzcgMCAwIDAgOS44ODkyMjUgMy4zNDIxNjIgMTYuMzQwNDI2IDE2LjM0MDQyNiAwIDAgMCA5LjkxNTM3LTI5LjMzODY4OWwtNTcuMTk1ODQ2LTQzLjU3NDQ2OGExNi4zNDI2MDQgMTYuMzQyNjA0IDAgMCAwLTE5LjgwNDU5NiAwbC00Ny4yOTM1NDkgMzYuMDI5NTQ4LTQ3LjI4NzAxMy0zNi4wMjk1NDhhMTYuMzQ2OTYyIDE2LjM0Njk2MiAwIDAgMC0xOS44MDY3NzQgMGwtNTcuMTg3MTMyIDQzLjU3NDQ2OGExNi4zNDI2MDQgMTYuMzQyNjA0IDAgMCAwIDE5LjgxMTEzMiAyNS45OTY1Mjd6Ii8+PHBhdGggZmlsbD0iIzA4Mjk0NyIgZD0iTTEwMDcuNjU5NTc0IDE0Ny4wNjM4M2gtMTM0LjE0ODM1N2MtOS4wMjY0NTEgMC0xNi4zNDA0MjYgNy4zMTM5NzQtMTYuMzQwNDI2IDE2LjM0MDQyNXM3LjMxMzk3NCAxNi4zNDA0MjYgMTYuMzQwNDI2IDE2LjM0MDQyNkg5OTEuMzE5MTQ5Vjg4Mi4zODI5NzljMCAyNy4wMjkyNDMtMjEuOTkyMDM0IDQ5LjAyMTI3Ny00OS4wMjEyNzcgNDkuMDIxMjc2aC04NjAuNTk1NzQ0QzU0LjY3MDcwNiA5MzEuNDA0MjU1IDMyLjY4MDg1MSA5MDkuNDEyMjIxIDMyLjY4MDg1MSA4ODIuMzgyOTc5VjkyLjU5NTc0NWg2NDQuOTAyMTI4VjI1OS4yNjgwODVjMCA5LjAyNjQ1MSA3LjMxMzk3NCAxNi4zNDA0MjYgMTYuMzQwNDI1IDE2LjM0MDQyNkg4NjAuNTk1NzQ1Vjg4Mi4zODI5NzljMCA5LjAyNjQ1MSA3LjMxMzk3NCAxNi4zNDA0MjYgMTYuMzQwNDI1IDE2LjM0MDQyNWg2NS4zNjE3MDJjOS4wMjY0NTEgMCAxNi4zNDA0MjYtNy4zMTM5NzQgMTYuMzQwNDI2LTE2LjM0MDQyNXMtNy4zMTM5NzQtMTYuMzQwNDI2LTE2LjM0MDQyNi0xNi4zNDA0MjZIODkzLjI3NjU5NlYyNTkuMjY4MDg1YzAtMC41NDY4Ni0wLjAyODMyMy0xLjA5MTU0LTAuMDgyNzkyLTEuNjMxODY0LTAuMDM5MjE3LTAuNDAwODg1LTAuMTA4OTM2LTAuNzkzMDU1LTAuMTc2NDc2LTEuMTg1MjI1LTAuMDIzOTY2LTAuMTMyOTAyLTAuMDM0ODYtMC4yNjc5ODMtMC4wNjEwMDUtMC4zOTg3MDdhMTUuODEwOTk2IDE1LjgxMDk5NiAwIDAgMC0wLjM1MDc3NC0xLjM5ODc0Yy0wLjAxMzA3Mi0wLjA0NzkzMi0wLjAyMTc4Ny0wLjA5ODA0My0wLjAzNzAzOC0wLjE0NTk3NWExNi40NDUwMDQgMTYuNDQ1MDA0IDAgMCAwLTAuNDk0NTcxLTEuMzc5MTMxbC0wLjA0MzU3NC0wLjEyMjAwOWExNi4yNTMyNzcgMTYuMjUzMjc3IDAgMCAwLTAuNTg4MjU1LTEuMjQ2MjNjLTAuMDM0ODYtMC4wNjUzNjItMC4wNjEwMDQtMC4xMzcyNi0wLjA5ODA0My0wLjIwMjYyMWExNi42NDU0NDcgMTYuNjQ1NDQ3IDAgMCAwLTAuNjQyNzIzLTEuMDc0MTExYy0wLjA2MzE4My0wLjA5ODA0My0wLjExNzY1MS0wLjIwMjYyMS0wLjE4MzAxMy0wLjMwMDY2M2ExNi4xNTMwNTUgMTYuMTUzMDU1IDAgMCAwLTAuNjkwNjU1LTAuOTM0NjczYy0wLjA5MTUwNi0wLjExNTQ3Mi0wLjE2OTk0LTAuMjM5NjYtMC4yNjM2MjYtMC4zNTI5NTNhMTYuNDk5NDcyIDE2LjQ5OTQ3MiAwIDAgMC0wLjgzMDA5NC0wLjkxNzI0M2MtMC4wODI3OTEtMC4wODcxNDktMC4xNTQ2ODktMC4xODA4MzQtMC4yMzk2NTktMC4yNjU4MDRsLTE4My4wMTI3NjYtMTgzLjAxMjc2NmMtMC4wODQ5Ny0wLjA4NDk3LTAuMTc4NjU1LTAuMTU2ODY4LTAuMjY1ODA0LTAuMjM5NjU5YTE2LjQ5OTQ3MiAxNi40OTk0NzIgMCAwIDAtMC45MTcyNDMtMC44MzAwOTRjLTAuMTEzMjk0LTAuMDkzNjg1LTAuMjM3NDgxLTAuMTc0Mjk4LTAuMzUyOTUzLTAuMjY1ODA0YTE2Ljg4OTQ2NCAxNi44ODk0NjQgMCAwIDAtMC45MzI0OTQtMC42OTA2NTZjLTAuMDk4MDQzLTAuMDY1MzYyLTAuMjAyNjIxLTAuMTE5ODMtMC4zMDI4NDItMC4xODMwMTJhMTUuNzEwNzc0IDE1LjcxMDc3NCAwIDAgMC0xLjA3NDExMS0wLjY0MjcyNGMtMC4wNjUzNjItMC4wMzcwMzgtMC4xMzUwODEtMC4wNjMxODMtMC4yMDI2MjEtMC4wOTgwNDJhMTUuODc2MzU3IDE1Ljg3NjM1NyAwIDAgMC0xLjI0NjIzLTAuNTg4MjU2Yy0wLjAzOTIxNy0wLjAxNzQzLTAuMDgwNjEzLTAuMDI4MzIzLTAuMTIyMDA4LTAuMDQ1NzUzYTE2LjQ0NTAwNCAxNi40NDUwMDQgMCAwIDAtMS4zNzkxMzItMC40OTQ1N2MtMC4wNDc5MzItMC4wMTMwNzItMC4wOTgwNDMtMC4wMjE3ODctMC4xNDU5NzUtMC4wMzcwMzhhMTUuODEwOTk2IDE1LjgxMDk5NiAwIDAgMC0xLjM5ODc0LTAuMzUwNzc1Yy0wLjEzMDcyMy0wLjAyNjE0NS0wLjI2NTgwNC0wLjAzOTIxNy0wLjM5ODcwNy0wLjA2MTAwNC0wLjM5MjE3LTAuMDY3NTQtMC43ODQzNC0wLjEzNzI2LTEuMTg1MjI1LTAuMTc4NjU1YTE2LjIzODAyNiAxNi4yMzgwMjYgMCAwIDAtMS42MzE4NjQtMC4wODI3OTJIMTYuMzQwNDI2QTE2LjM0Njk2MiAxNi4zNDY5NjIgMCAwIDAgMCA3Ni4yNTUzMTl2ODA2LjEyNzY2YzAgNDUuMDUxNjQzIDM2LjY1MDQ4NSA4MS43MDIxMjggODEuNzAyMTI4IDgxLjcwMjEyN2g4NjAuNTk1NzQ0YzQ1LjA1MTY0MyAwIDgxLjcwMjEyOC0zNi42NTA0ODUgODEuNzAyMTI4LTgxLjcwMjEyN1YxNjMuNDA0MjU1YzAtOS4wMjY0NTEtNy4zMTM5NzQtMTYuMzQwNDI2LTE2LjM0MDQyNi0xNi4zNDA0MjV6IG0tMjk3LjM5NTc0NCA5NS44NjM4M1YxMTUuNzAzMjg1bDEyNy4yMjQzNzQgMTI3LjIyNDM3NUg3MTAuMjYzODN6Ii8+PHBhdGggZGF0YS1zcG0tYW5jaG9yLWlkPSJhMzEzeC5zZWFyY2hfaW5kZXguMC5pNC4yOWQ3M2E4MXpFcDlBYyIgZmlsbD0iIzA4Mjk0NyIgZD0iTTM4MS4yNzY1OTYgNzk0LjE0NDY4MUgxNDcuMDYzODNjLTkuMDI0MjcyIDAtMTYuMzQwNDI2IDcuMzEzOTc0LTE2LjM0MDQyNiAxNi4zNDA0MjVzNy4zMTYxNTMgMTYuMzQwNDI2IDE2LjM0MDQyNiAxNi4zNDA0MjZIMzgxLjI3NjU5NmM5LjAyNDI3MiAwIDE2LjM0MDQyNi03LjMxMzk3NCAxNi4zNDA0MjUtMTYuMzQwNDI2cy03LjMxNjE1My0xNi4zNDA0MjYtMTYuMzQwNDI1LTE2LjM0MDQyNXpNNzQ2LjIxMjc2NiA3OTQuMTQ0NjgxSDUxMmMtOS4wMjQyNzIgMC0xNi4zNDA0MjYgNy4zMTM5NzQtMTYuMzQwNDI2IDE2LjM0MDQyNXM3LjMxNjE1MyAxNi4zNDA0MjYgMTYuMzQwNDI2IDE2LjM0MDQyNmgyMzQuMjEyNzY2YzkuMDI2NDUxIDAgMTYuMzQwNDI2LTcuMzEzOTc0IDE2LjM0MDQyNS0xNi4zNDA0MjZzLTcuMzEzOTc0LTE2LjM0MDQyNi0xNi4zNDA0MjUtMTYuMzQwNDI1ek03NDYuMjEyNzY2IDY5Ni4xMDIxMjhINTEyYy05LjAyNDI3MiAwLTE2LjM0MDQyNiA3LjMxMzk3NC0xNi4zNDA0MjYgMTYuMzQwNDI1czcuMzE2MTUzIDE2LjM0MDQyNiAxNi4zNDA0MjYgMTYuMzQwNDI2aDIzNC4yMTI3NjZjOS4wMjY0NTEgMCAxNi4zNDA0MjYtNy4zMTM5NzQgMTYuMzQwNDI1LTE2LjM0MDQyNnMtNy4zMTM5NzQtMTYuMzQwNDI2LTE2LjM0MDQyNS0xNi4zNDA0MjV6TTc0Ni4yMTI3NjYgNTk4LjA1OTU3NEg1MTJjLTkuMDI0MjcyIDAtMTYuMzQwNDI2IDcuMzEzOTc0LTE2LjM0MDQyNiAxNi4zNDA0MjZzNy4zMTYxNTMgMTYuMzQwNDI2IDE2LjM0MDQyNiAxNi4zNDA0MjZoMjM0LjIxMjc2NmM5LjAyNjQ1MSAwIDE2LjM0MDQyNi03LjMxMzk3NCAxNi4zNDA0MjUtMTYuMzQwNDI2cy03LjMxMzk3NC0xNi4zNDA0MjYtMTYuMzQwNDI1LTE2LjM0MDQyNnpNMzgxLjI3NjU5NiA1MDAuMDE3MDIxSDE0Ny4wNjM4M0ExNi4zNDA0MjYgMTYuMzQwNDI2IDAgMCAwIDEzMC43MjM0MDQgNTE2LjM1NzQ0N3YxOTYuMDg1MTA2YTE2LjM0MDQyNiAxNi4zNDA0MjYgMCAwIDAgMTYuMzQwNDI2IDE2LjM0MDQyNkgzODEuMjc2NTk2YTE2LjM0MDQyNiAxNi4zNDA0MjYgMCAwIDAgMTYuMzQwNDI1LTE2LjM0MDQyNnYtODcuMTQ4OTM2YzAtOS4wMjY0NTEtNy4zMTYxNTMtMTYuMzQwNDI2LTE2LjM0MDQyNS0xNi4zNDA0MjZzLTE2LjM0MDQyNiA3LjMxMzk3NC0xNi4zNDA0MjYgMTYuMzQwNDI2djcwLjgwODUxMUgxNjMuNDA0MjU1di0xNjMuNDA0MjU2aDIwMS41MzE5MTVWNTU5LjkzMTkxNWMwIDkuMDI2NDUxIDcuMzE2MTUzIDE2LjM0MDQyNiAxNi4zNDA0MjYgMTYuMzQwNDI1czE2LjM0MDQyNi03LjMxMzk3NCAxNi4zNDA0MjUtMTYuMzQwNDI1di00My41NzQ0NjhhMTYuMzQwNDI2IDE2LjM0MDQyNiAwIDAgMC0xNi4zNDA0MjUtMTYuMzQwNDI2ek03NDYuMjEyNzY2IDUwMC4wMTcwMjFINTEyYy05LjAyNDI3MiAwLTE2LjM0MDQyNiA3LjMxMzk3NC0xNi4zNDA0MjYgMTYuMzQwNDI2czcuMzE2MTUzIDE2LjM0MDQyNiAxNi4zNDA0MjYgMTYuMzQwNDI1aDIzNC4yMTI3NjZjOS4wMjY0NTEgMCAxNi4zNDA0MjYtNy4zMTM5NzQgMTYuMzQwNDI1LTE2LjM0MDQyNXMtNy4zMTM5NzQtMTYuMzQwNDI2LTE2LjM0MDQyNS0xNi4zNDA0MjZ6TTc0Ni4yMTI3NjYgNDAxLjk3NDQ2OGgtNTk5LjE0ODkzNmMtOS4wMjQyNzIgMC0xNi4zNDA0MjYgNy4zMTM5NzQtMTYuMzQwNDI2IDE2LjM0MDQyNnM3LjMxNjE1MyAxNi4zNDA0MjYgMTYuMzQwNDI2IDE2LjM0MDQyNWg1OTkuMTQ4OTM2YzkuMDI2NDUxIDAgMTYuMzQwNDI2LTcuMzEzOTc0IDE2LjM0MDQyNS0xNi4zNDA0MjVzLTcuMzEzOTc0LTE2LjM0MDQyNi0xNi4zNDA0MjUtMTYuMzQwNDI2eiIvPjwvc3ZnPg==;" parent="Hc0L2odZ3vd23eVe25mG-45" vertex="1">
          <mxGeometry x="133.1769230769231" y="27.71653543307087" width="47.874015748031496" height="47.874015748031496" as="geometry" />
        </mxCell>
        <mxCell id="7eAtlii1mji2zyvNqCvg-3" value="" style="shape=image;verticalLabelPosition=bottom;labelBackgroundColor=default;verticalAlign=top;aspect=fixed;imageAspect=0;image=data:image/svg+xml,PHN2ZyB4bWxuczp4bGluaz0iaHR0cDovL3d3dy53My5vcmcvMTk5OS94bGluayIgeG1sbnM9Imh0dHA6Ly93d3cudzMub3JnLzIwMDAvc3ZnIiBoZWlnaHQ9IjIwMCIgd2lkdGg9IjIwMCIgdmVyc2lvbj0iMS4xIiB2aWV3Qm94PSIwIDAgMTAyNCAxMDI0IiBjbGFzcz0iaWNvbiI+PHBhdGggZmlsbD0iIzNGQTlGNSIgZD0iTTMwNy4yIDUwNG0tMzIgMGEyIDIgMCAxIDAgNjQgMCAyIDIgMCAxIDAtNjQgMFoiLz48cGF0aCBmaWxsPSIjM0ZBOUY1IiBkPSJNMzg3LjIgNTA0bS0zMiAwYTIgMiAwIDEgMCA2NCAwIDIgMiAwIDEgMC02NCAwWiIvPjxwYXRoIGZpbGw9IiMzRkE5RjUiIGQ9Ik00NjcuMiA1MDRtLTMyIDBhMiAyIDAgMSAwIDY0IDAgMiAyIDAgMSAwLTY0IDBaIi8+PHBhdGggZmlsbD0iIzNGQTlGNSIgZD0iTTU0Ny4yIDUwNG0tMzIgMGEyIDIgMCAxIDAgNjQgMCAyIDIgMCAxIDAtNjQgMFoiLz48cGF0aCBmaWxsPSIjM0ZBOUY1IiBkPSJNMjI3LjIgNDE2bS0zMiAwYTIgMiAwIDEgMCA2NCAwIDIgMiAwIDEgMC02NCAwWiIvPjxwYXRoIGZpbGw9IiMzRkE5RjUiIGQ9Ik0zMDcuMiA0MTZtLTMyIDBhMiAyIDAgMSAwIDY0IDAgMiAyIDAgMSAwLTY0IDBaIi8+PHBhdGggZmlsbD0iIzNGQTlGNSIgZD0iTTM4Ny4yIDQxNm0tMzIgMGEyIDIgMCAxIDAgNjQgMCAyIDIgMCAxIDAtNjQgMFoiLz48cGF0aCBmaWxsPSIjM0ZBOUY1IiBkPSJNNDY3LjIgNDE2bS0zMiAwYTIgMiAwIDEgMCA2NCAwIDIgMiAwIDEgMC02NCAwWiIvPjxwYXRoIGZpbGw9IiMzRkE5RjUiIGQ9Ik0xMzEuMiAzMzZtLTMyIDBhMiAyIDAgMSAwIDY0IDAgMiAyIDAgMSAwLTY0IDBaIi8+PHBhdGggZmlsbD0iIzNGQTlGNSIgZD0iTTIxMS4yIDMzNm0tMzIgMGEyIDIgMCAxIDAgNjQgMCAyIDIgMCAxIDAtNjQgMFoiLz48cGF0aCBmaWxsPSIjM0ZBOUY1IiBkPSJNMjkxLjIgMzM2bS0zMiAwYTIgMiAwIDEgMCA2NCAwIDIgMiAwIDEgMC02NCAwWiIvPjxwYXRoIGZpbGw9IiMzRkE5RjUiIGQ9Ik0zNzEuMiAzMzZtLTMyIDBhMiAyIDAgMSAwIDY0IDAgMiAyIDAgMSAwLTY0IDBaIi8+PHBhdGggZmlsbD0iIzNGQTlGNSIgZD0iTTUxLjIgMjU2bS0zMiAwYTIgMiAwIDEgMCA2NCAwIDIgMiAwIDEgMC02NCAwWiIvPjxwYXRoIGZpbGw9IiMzRkE5RjUiIGQ9Ik0xMzEuMiAyNTZtLTMyIDBhMiAyIDAgMSAwIDY0IDAgMiAyIDAgMSAwLTY0IDBaIi8+PHBhdGggZmlsbD0iIzNGQTlGNSIgZD0iTTIxMS4yIDI1Nm0tMzIgMGEyIDIgMCAxIDAgNjQgMCAyIDIgMCAxIDAtNjQgMFoiLz48cGF0aCBmaWxsPSIjM0ZBOUY1IiBkPSJNMjkxLjIgMjU2bS0zMiAwYTIgMiAwIDEgMCA2NCAwIDIgMiAwIDEgMC02NCAwWiIvPjxwYXRoIGZpbGw9IiMzRkE5RjUiIGQ9Ik0yMjcuMiA1OTJtLTMyIDBhMiAyIDAgMSAwIDY0IDAgMiAyIDAgMSAwLTY0IDBaIi8+PHBhdGggZmlsbD0iIzNGQTlGNSIgZD0iTTMwNy4yIDU5Mm0tMzIgMGEyIDIgMCAxIDAgNjQgMCAyIDIgMCAxIDAtNjQgMFoiLz48cGF0aCBmaWxsPSIjM0ZBOUY1IiBkPSJNMzg3LjIgNTkybS0zMiAwYTIgMiAwIDEgMCA2NCAwIDIgMiAwIDEgMC02NCAwWiIvPjxwYXRoIGZpbGw9IiMzRkE5RjUiIGQ9Ik00NjcuMiA1OTJtLTMyIDBhMiAyIDAgMSAwIDY0IDAgMiAyIDAgMSAwLTY0IDBaIi8+PHBhdGggZmlsbD0iIzNGQTlGNSIgZD0iTTEzMS4yIDY4OG0tMzIgMGEyIDIgMCAxIDAgNjQgMCAyIDIgMCAxIDAtNjQgMFoiLz48cGF0aCBmaWxsPSIjM0ZBOUY1IiBkPSJNMjExLjIgNjg4bS0zMiAwYTIgMiAwIDEgMCA2NCAwIDIgMiAwIDEgMC02NCAwWiIvPjxwYXRoIGZpbGw9IiMzRkE5RjUiIGQ9Ik0yOTEuMiA2ODhtLTMyIDBhMiAyIDAgMSAwIDY0IDAgMiAyIDAgMSAwLTY0IDBaIi8+PHBhdGggZmlsbD0iIzNGQTlGNSIgZD0iTTM3MS4yIDY4OG0tMzIgMGEyIDIgMCAxIDAgNjQgMCAyIDIgMCAxIDAtNjQgMFoiLz48cGF0aCBmaWxsPSIjM0ZBOUY1IiBkPSJNNTEuMiA3NjhtLTMyIDBhMiAyIDAgMSAwIDY0IDAgMiAyIDAgMSAwLTY0IDBaIi8+PHBhdGggZmlsbD0iIzNGQTlGNSIgZD0iTTEzMS4yIDc2OG0tMzIgMGEyIDIgMCAxIDAgNjQgMCAyIDIgMCAxIDAtNjQgMFoiLz48cGF0aCBmaWxsPSIjM0ZBOUY1IiBkPSJNMjExLjIgNzY4bS0zMiAwYTIgMiAwIDEgMCA2NCAwIDIgMiAwIDEgMC02NCAwWiIvPjxwYXRoIGZpbGw9IiMzRkE5RjUiIGQ9Ik0yOTEuMiA3NjhtLTMyIDBhMiAyIDAgMSAwIDY0IDAgMiAyIDAgMSAwLTY0IDBaIi8+PHBhdGggZmlsbD0iIzNGQTlGNSIgZD0iTTczOS4yIDUwNG0tMzIgMGEyIDIgMCAxIDAgNjQgMCAyIDIgMCAxIDAtNjQgMFoiLz48cGF0aCBmaWxsPSIjM0ZBOUY1IiBkPSJNODE5LjIgNTA0bS0zMiAwYTIgMiAwIDEgMCA2NCAwIDIgMiAwIDEgMC02NCAwWiIvPjxwYXRoIGZpbGw9IiMzRkE5RjUiIGQ9Ik04OTkuMiA1MDRtLTMyIDBhMiAyIDAgMSAwIDY0IDAgMiAyIDAgMSAwLTY0IDBaIi8+PHBhdGggZmlsbD0iIzNGQTlGNSIgZD0iTTk3OS4yIDUwNG0tMzIgMGEyIDIgMCAxIDAgNjQgMCAyIDIgMCAxIDAtNjQgMFoiLz48cGF0aCBmaWxsPSIjM0ZBOUY1IiBkPSJNNjU5LjIgNDE2bS0zMiAwYTIgMiAwIDEgMCA2NCAwIDIgMiAwIDEgMC02NCAwWiIvPjxwYXRoIGZpbGw9IiMzRkE5RjUiIGQ9Ik03MzkuMiA0MTZtLTMyIDBhMiAyIDAgMSAwIDY0IDAgMiAyIDAgMSAwLTY0IDBaIi8+PHBhdGggZmlsbD0iIzNGQTlGNSIgZD0iTTgxOS4yIDQxNm0tMzIgMGEyIDIgMCAxIDAgNjQgMCAyIDIgMCAxIDAtNjQgMFoiLz48cGF0aCBmaWxsPSIjM0ZBOUY1IiBkPSJNODk5LjIgNDE2bS0zMiAwYTIgMiAwIDEgMCA2NCAwIDIgMiAwIDEgMC02NCAwWiIvPjxwYXRoIGZpbGw9IiMzRkE5RjUiIGQ9Ik01NjMuMiAzMzZtLTMyIDBhMiAyIDAgMSAwIDY0IDAgMiAyIDAgMSAwLTY0IDBaIi8+PHBhdGggZmlsbD0iIzNGQTlGNSIgZD0iTTY0My4yIDMzNm0tMzIgMGEyIDIgMCAxIDAgNjQgMCAyIDIgMCAxIDAtNjQgMFoiLz48cGF0aCBmaWxsPSIjM0ZBOUY1IiBkPSJNNzIzLjIgMzM2bS0zMiAwYTIgMiAwIDEgMCA2NCAwIDIgMiAwIDEgMC02NCAwWiIvPjxwYXRoIGZpbGw9IiMzRkE5RjUiIGQ9Ik04MDMuMiAzMzZtLTMyIDBhMiAyIDAgMSAwIDY0IDAgMiAyIDAgMSAwLTY0IDBaIi8+PHBhdGggZmlsbD0iIzNGQTlGNSIgZD0iTTQ4My4yIDI1Nm0tMzIgMGEyIDIgMCAxIDAgNjQgMCAyIDIgMCAxIDAtNjQgMFoiLz48cGF0aCBmaWxsPSIjM0ZBOUY1IiBkPSJNNTYzLjIgMjU2bS0zMiAwYTIgMiAwIDEgMCA2NCAwIDIgMiAwIDEgMC02NCAwWiIvPjxwYXRoIGZpbGw9IiMzRkE5RjUiIGQ9Ik02NDMuMiAyNTZtLTMyIDBhMiAyIDAgMSAwIDY0IDAgMiAyIDAgMSAwLTY0IDBaIi8+PHBhdGggZmlsbD0iIzNGQTlGNSIgZD0iTTcyMy4yIDI1Nm0tMzIgMGEyIDIgMCAxIDAgNjQgMCAyIDIgMCAxIDAtNjQgMFoiLz48cGF0aCBmaWxsPSIjM0ZBOUY1IiBkPSJNNjU5LjIgNTkybS0zMiAwYTIgMiAwIDEgMCA2NCAwIDIgMiAwIDEgMC02NCAwWiIvPjxwYXRoIGZpbGw9IiMzRkE5RjUiIGQ9Ik03MzkuMiA1OTJtLTMyIDBhMiAyIDAgMSAwIDY0IDAgMiAyIDAgMSAwLTY0IDBaIi8+PHBhdGggZmlsbD0iIzNGQTlGNSIgZD0iTTgxOS4yIDU5Mm0tMzIgMGEyIDIgMCAxIDAgNjQgMCAyIDIgMCAxIDAtNjQgMFoiLz48cGF0aCBmaWxsPSIjM0ZBOUY1IiBkPSJNODk5LjIgNTkybS0zMiAwYTIgMiAwIDEgMCA2NCAwIDIgMiAwIDEgMC02NCAwWiIvPjxwYXRoIGZpbGw9IiMzRkE5RjUiIGQ9Ik01NjMuMiA2ODhtLTMyIDBhMiAyIDAgMSAwIDY0IDAgMiAyIDAgMSAwLTY0IDBaIi8+PHBhdGggZmlsbD0iIzNGQTlGNSIgZD0iTTY0My4yIDY4OG0tMzIgMGEyIDIgMCAxIDAgNjQgMCAyIDIgMCAxIDAtNjQgMFoiLz48cGF0aCBmaWxsPSIjM0ZBOUY1IiBkPSJNNzIzLjIgNjg4bS0zMiAwYTIgMiAwIDEgMCA2NCAwIDIgMiAwIDEgMC02NCAwWiIvPjxwYXRoIGZpbGw9IiMzRkE5RjUiIGQ9Ik04MDMuMiA2ODhtLTMyIDBhMiAyIDAgMSAwIDY0IDAgMiAyIDAgMSAwLTY0IDBaIi8+PHBhdGggZmlsbD0iIzNGQTlGNSIgZD0iTTQ4My4yIDc2OG0tMzIgMGEyIDIgMCAxIDAgNjQgMCAyIDIgMCAxIDAtNjQgMFoiLz48cGF0aCBmaWxsPSIjM0ZBOUY1IiBkPSJNNTYzLjIgNzY4bS0zMiAwYTIgMiAwIDEgMCA2NCAwIDIgMiAwIDEgMC02NCAwWiIvPjxwYXRoIGZpbGw9IiMzRkE5RjUiIGQ9Ik02NDMuMiA3NjhtLTMyIDBhMiAyIDAgMSAwIDY0IDAgMiAyIDAgMSAwLTY0IDBaIi8+PHBhdGggZmlsbD0iIzNGQTlGNSIgZD0iTTcyMy4yIDc2OG0tMzIgMGEyIDIgMCAxIDAgNjQgMCAyIDIgMCAxIDAtNjQgMFoiLz48L3N2Zz4=;" vertex="1" parent="1">
          <mxGeometry x="-58" y="-20" width="40" height="40" as="geometry" />
        </mxCell>
        <mxCell id="7eAtlii1mji2zyvNqCvg-24" style="edgeStyle=orthogonalEdgeStyle;rounded=0;orthogonalLoop=1;jettySize=auto;html=1;" edge="1" parent="1" source="7eAtlii1mji2zyvNqCvg-6" target="7eAtlii1mji2zyvNqCvg-18">
          <mxGeometry relative="1" as="geometry" />
        </mxCell>
        <mxCell id="7eAtlii1mji2zyvNqCvg-6" value="建立词性表" style="rounded=1;whiteSpace=wrap;html=1;fillColor=#FAFFFB;" vertex="1" parent="1">
          <mxGeometry x="153" y="-145" width="120" height="60" as="geometry" />
        </mxCell>
        <mxCell id="7eAtlii1mji2zyvNqCvg-8" value="" style="group" vertex="1" connectable="0" parent="1">
          <mxGeometry x="-7" y="-30" width="120" height="60" as="geometry" />
        </mxCell>
        <mxCell id="7eAtlii1mji2zyvNqCvg-4" value="&lt;div&gt;&lt;br&gt;&lt;/div&gt;&lt;div&gt;&lt;br&gt;&lt;/div&gt;分词 &amp;amp; 词性标注" style="rounded=1;whiteSpace=wrap;html=1;strokeWidth=2;" vertex="1" parent="7eAtlii1mji2zyvNqCvg-8">
          <mxGeometry width="120" height="60" as="geometry" />
        </mxCell>
        <mxCell id="7eAtlii1mji2zyvNqCvg-5" value="" style="shape=image;verticalLabelPosition=bottom;labelBackgroundColor=default;verticalAlign=top;aspect=fixed;imageAspect=0;image=https://stanfordnlp.github.io/CoreNLP/assets/images/corenlp-title.png;" vertex="1" parent="7eAtlii1mji2zyvNqCvg-8">
          <mxGeometry x="9" y="3" width="102" height="34" as="geometry" />
        </mxCell>
        <mxCell id="7eAtlii1mji2zyvNqCvg-27" style="edgeStyle=orthogonalEdgeStyle;rounded=0;orthogonalLoop=1;jettySize=auto;html=1;entryX=0;entryY=0.5;entryDx=0;entryDy=0;" edge="1" parent="1" source="7eAtlii1mji2zyvNqCvg-9" target="7eAtlii1mji2zyvNqCvg-25">
          <mxGeometry relative="1" as="geometry" />
        </mxCell>
        <mxCell id="7eAtlii1mji2zyvNqCvg-28" style="edgeStyle=orthogonalEdgeStyle;rounded=0;orthogonalLoop=1;jettySize=auto;html=1;entryX=0;entryY=0.5;entryDx=0;entryDy=0;" edge="1" parent="1" source="7eAtlii1mji2zyvNqCvg-9" target="7eAtlii1mji2zyvNqCvg-26">
          <mxGeometry relative="1" as="geometry" />
        </mxCell>
        <mxCell id="7eAtlii1mji2zyvNqCvg-29" style="edgeStyle=orthogonalEdgeStyle;rounded=0;orthogonalLoop=1;jettySize=auto;html=1;" edge="1" parent="1" source="7eAtlii1mji2zyvNqCvg-9" target="7eAtlii1mji2zyvNqCvg-21">
          <mxGeometry relative="1" as="geometry">
            <Array as="points">
              <mxPoint x="210" y="85" />
            </Array>
          </mxGeometry>
        </mxCell>
        <mxCell id="7eAtlii1mji2zyvNqCvg-9" value="建立词典表" style="rounded=1;whiteSpace=wrap;html=1;fillColor=#FAFFFB;" vertex="1" parent="1">
          <mxGeometry x="152" y="10" width="120" height="60" as="geometry" />
        </mxCell>
        <mxCell id="7eAtlii1mji2zyvNqCvg-10" value="语料库检索引擎" style="text;html=1;align=center;verticalAlign=middle;whiteSpace=wrap;rounded=0;fontStyle=1;fontColor=#000099;fontFamily=宋体;" vertex="1" parent="1">
          <mxGeometry x="130" y="378" width="110" height="30" as="geometry" />
        </mxCell>
        <mxCell id="7eAtlii1mji2zyvNqCvg-13" style="edgeStyle=orthogonalEdgeStyle;rounded=0;orthogonalLoop=1;jettySize=auto;html=1;entryX=0;entryY=0.5;entryDx=0;entryDy=0;" edge="1" parent="1" source="7eAtlii1mji2zyvNqCvg-4" target="7eAtlii1mji2zyvNqCvg-6">
          <mxGeometry relative="1" as="geometry" />
        </mxCell>
        <mxCell id="7eAtlii1mji2zyvNqCvg-14" style="edgeStyle=orthogonalEdgeStyle;rounded=0;orthogonalLoop=1;jettySize=auto;html=1;entryX=0;entryY=0.5;entryDx=0;entryDy=0;" edge="1" parent="1" source="7eAtlii1mji2zyvNqCvg-4" target="7eAtlii1mji2zyvNqCvg-9">
          <mxGeometry relative="1" as="geometry" />
        </mxCell>
        <mxCell id="7eAtlii1mji2zyvNqCvg-18" value="词性倒排索引表" style="rounded=1;whiteSpace=wrap;html=1;fillColor=#E6FFE6;strokeColor=#82b366;" vertex="1" parent="1">
          <mxGeometry x="490" y="-140" width="100" height="50" as="geometry" />
        </mxCell>
        <mxCell id="7eAtlii1mji2zyvNqCvg-19" value="文档数据表" style="rounded=1;whiteSpace=wrap;html=1;fillColor=#E6FFE6;strokeColor=#82b366;" vertex="1" parent="1">
          <mxGeometry x="490" y="-75" width="100" height="50" as="geometry" />
        </mxCell>
        <mxCell id="7eAtlii1mji2zyvNqCvg-20" value="词语倒排索引表" style="rounded=1;whiteSpace=wrap;html=1;fillColor=#E6FFE6;strokeColor=#82b366;" vertex="1" parent="1">
          <mxGeometry x="490" y="-10" width="100" height="50" as="geometry" />
        </mxCell>
        <mxCell id="7eAtlii1mji2zyvNqCvg-21" value="词语 TRIE 树" style="rounded=1;whiteSpace=wrap;html=1;fillColor=#E6FFE6;strokeColor=#82b366;" vertex="1" parent="1">
          <mxGeometry x="490" y="60" width="100" height="50" as="geometry" />
        </mxCell>
        <mxCell id="7eAtlii1mji2zyvNqCvg-30" style="edgeStyle=orthogonalEdgeStyle;rounded=0;orthogonalLoop=1;jettySize=auto;html=1;" edge="1" parent="1" source="7eAtlii1mji2zyvNqCvg-25" target="7eAtlii1mji2zyvNqCvg-19">
          <mxGeometry relative="1" as="geometry" />
        </mxCell>
        <mxCell id="7eAtlii1mji2zyvNqCvg-25" value="建立词典表" style="rounded=1;whiteSpace=wrap;html=1;fillColor=#FAFFFB;" vertex="1" parent="1">
          <mxGeometry x="340" y="-80" width="120" height="60" as="geometry" />
        </mxCell>
        <mxCell id="7eAtlii1mji2zyvNqCvg-31" style="edgeStyle=orthogonalEdgeStyle;rounded=0;orthogonalLoop=1;jettySize=auto;html=1;" edge="1" parent="1" source="7eAtlii1mji2zyvNqCvg-26" target="7eAtlii1mji2zyvNqCvg-20">
          <mxGeometry relative="1" as="geometry" />
        </mxCell>
        <mxCell id="7eAtlii1mji2zyvNqCvg-26" value="建立词典表" style="rounded=1;whiteSpace=wrap;html=1;fillColor=#FAFFFB;" vertex="1" parent="1">
          <mxGeometry x="340" y="-15" width="120" height="60" as="geometry" />
        </mxCell>
      </root>
    </mxGraphModel>
  </diagram>
</mxfile>
